<svg xmlns="http://www.w3.org/2000/svg" width="221.417" height="76.283" viewBox="0 0 221.417 76.283">
  <g id="그룹_42" data-name="그룹 42" transform="translate(-327.289 -443.283)">
    <g id="그룹_32" data-name="그룹 32">
      <g id="그룹_31" data-name="그룹 31">
        <g id="그룹_30" data-name="그룹 30">
          <path id="패스_44" data-name="패스 44" d="M405.285,443.283v4.049H394.692v-4.049h-23.03l0,22.939h12.855V453.878h106.7v12.344h13.118V443.283Z" fill="#8b8b8c"/>
        </g>
      </g>
    </g>
    <g id="그룹_40" data-name="그룹 40">
      <g id="그룹_39" data-name="그룹 39">
        <g id="그룹_33" data-name="그룹 33">
          <rect id="사각형_41" data-name="사각형 41" width="4.479" height="28.355" transform="translate(418.645 477.916)"/>
          <path id="패스_45" data-name="패스 45" d="M412.04,481.292h-4a8.784,8.784,0,1,0-.36,11.409h4.357l-.006,13.576h4.484l0-28.381h-4.486Zm-10.837,9.34a3.845,3.845,0,1,1,3.843-3.841A3.848,3.848,0,0,1,401.2,490.632Zm10.837-2.09H409.8a8.542,8.542,0,0,0,.181-1.751,8.686,8.686,0,0,0-.109-1.315h2.164Z"/>
        </g>
        <g id="그룹_34" data-name="그룹 34">
          <path id="패스_46" data-name="패스 46" d="M441.085,479.025l7.549,6.578L451.923,482l-10.888-9.217-10.8,9.3,3.307,3.521Z"/>
          <path id="패스_47" data-name="패스 47" d="M426.8,489.884h11.632v2.057H428.123v3.6h20.615v1.732H428.123v8.971h26.046v-3.59H433.43V500.88h20.619v-8.94h-10.32v-2.057h11.631v-3.678H426.8Z"/>
        </g>
        <g id="그룹_35" data-name="그룹 35">
          <path id="패스_48" data-name="패스 48" d="M464,482.505h8.515v-4.59H458.782v16.551h13.9v-4.52H464Z"/>
          <path id="패스_49" data-name="패스 49" d="M481.426,483.582h-2.153v-5.666H474.8v28.338h4.47V488.177h2.153v18.076h4.455V477.916h-4.455Z"/>
        </g>
        <g id="그룹_36" data-name="그룹 36">
          <path id="패스_50" data-name="패스 50" d="M368.554,498.25h5.3v-4.2h7.272v-4.416H360.969v4.416h7.585Z"/>
          <path id="패스_51" data-name="패스 51" d="M366.909,496.836H361.88v8.228h26.766v-4.588H366.909Z"/>
          <path id="패스_52" data-name="패스 52" d="M382.975,498.125h5.3V477.916h-5.3v5.178h-3.143v4.6h3.143Z"/>
          <path id="패스_53" data-name="패스 53" d="M371.2,488.525a7.951,7.951,0,1,0-7.969-7.953A7.954,7.954,0,0,0,371.2,488.525Zm0-11.047a3.093,3.093,0,1,1-3.09,3.094A3.093,3.093,0,0,1,371.2,477.478Z"/>
        </g>
        <g id="그룹_37" data-name="그룹 37">
          <path id="패스_54" data-name="패스 54" d="M516.646,483.582v-5.666h-5.321v16.271h5.321v-6.01h3.682v-4.6Z"/>
          <path id="패스_55" data-name="패스 55" d="M491.234,500.683h20.09v5.588h5.321V496.083H491.234Z"/>
          <path id="패스_56" data-name="패스 56" d="M491.615,486.037a7.958,7.958,0,0,0,15.915,0,7.85,7.85,0,0,0-.766-3.373h2.668v-4.633h-7.163v-3.039h-5.316v3.039h-7.19v4.633h2.616A7.863,7.863,0,0,0,491.615,486.037Zm7.949,3.09a3.183,3.183,0,1,1,3.171-3.18A3.187,3.187,0,0,1,499.564,489.127Z"/>
        </g>
        <g id="그룹_38" data-name="그룹 38">
          <rect id="사각형_42" data-name="사각형 42" width="4.476" height="28.392" transform="translate(352.428 477.916)"/>
          <path id="패스_57" data-name="패스 57" d="M345.967,477.916v3.515h-4.294v-3.515H327.289v4.548h9.186v15.211h5.2v-4.736h4.294v13.369h4.477V477.916Zm0,10.668h-4.294V485.81h4.294Z"/>
        </g>
        <path id="패스_58" data-name="패스 58" d="M547.076,496.007H542.35V483.492H523.686v-4.986h23.391Z"/>
        <path id="패스_59" data-name="패스 59" d="M548.706,505.117H521.268V500.41h6.6v-5.873h4.354v5.877l2.777.023v-5.9h4.374v5.873h9.336Z"/>
      </g>
    </g>
    <g id="그룹_41" data-name="그룹 41">
      <path id="패스_60" data-name="패스 60" d="M336.516,512.873h1.437v2.709l2.556-2.709H342.3l-2.553,2.582,2.8,3.953h-1.806l-1.965-2.938-.825.834v2.1h-1.437Z" fill="#1a1311"/>
      <path id="패스_61" data-name="패스 61" d="M345.644,512.873h1.474l2.445,6.535H348.07l-.492-1.453h-2.445l-.514,1.453h-1.457Zm-.137,4.007h1.7l-.823-2.4h-.022Z" fill="#1a1311"/>
      <path id="패스_62" data-name="패스 62" d="M351.879,516.865l-2.408-3.992h1.621l1.529,2.582,1.52-2.582h1.6l-2.426,4.027v2.508h-1.437Z" fill="#1a1311"/>
      <path id="패스_63" data-name="패스 63" d="M363.252,519.408h-1.427l-1.11-4.448H360.7l-1.091,4.448h-1.455l-1.732-6.535h1.438l1.036,4.449h.017l1.137-4.449h1.346l1.117,4.505h.018l1.07-4.505h1.41Z" fill="#1a1311"/>
      <path id="패스_64" data-name="패스 64" d="M366.077,514.814a3.33,3.33,0,0,1,.639-1.105,2.839,2.839,0,0,1,1.017-.731,3.563,3.563,0,0,1,2.682,0,2.922,2.922,0,0,1,1.02.731,3.205,3.205,0,0,1,.635,1.105,4.071,4.071,0,0,1,.217,1.356,3.909,3.909,0,0,1-.217,1.322,3.167,3.167,0,0,1-.635,1.086,2.955,2.955,0,0,1-1.02.728,3.589,3.589,0,0,1-2.682,0,2.816,2.816,0,0,1-1.017-.726,3.214,3.214,0,0,1-.639-1.082,4.012,4.012,0,0,1-.218-1.328A4.123,4.123,0,0,1,366.077,514.814Zm1.32,2.174a2.13,2.13,0,0,0,.316.7,1.528,1.528,0,0,0,.554.492,1.729,1.729,0,0,0,.807.18,1.688,1.688,0,0,0,.808-.186,1.486,1.486,0,0,0,.555-.49,2.165,2.165,0,0,0,.311-.7,3.266,3.266,0,0,0,.1-.818,3.5,3.5,0,0,0-.1-.852,2.287,2.287,0,0,0-.311-.717,1.564,1.564,0,0,0-.555-.492,1.875,1.875,0,0,0-1.62,0,1.549,1.549,0,0,0-.553.492,2.265,2.265,0,0,0-.312.717,3.5,3.5,0,0,0-.1.852A3.266,3.266,0,0,0,367.4,516.988Z" fill="#1a1311"/>
      <path id="패스_65" data-name="패스 65" d="M373.709,512.873h1.428l2.729,4.386h.019v-4.386h1.346v6.535h-1.439l-2.718-4.375h-.019v4.375h-1.346Z" fill="#1a1311"/>
      <path id="패스_66" data-name="패스 66" d="M390.6,516.939a2.523,2.523,0,0,1-.73,1.963,2.931,2.931,0,0,1-2.063.664,2.969,2.969,0,0,1-2.063-.658,2.543,2.543,0,0,1-.722-1.969v-4.066h1.44v4.066a2.816,2.816,0,0,0,.049.549,1.127,1.127,0,0,0,.2.445,1.031,1.031,0,0,0,.417.311,1.8,1.8,0,0,0,.682.115,1.381,1.381,0,0,0,1.053-.334,1.613,1.613,0,0,0,.3-1.086v-4.066h1.44Z" fill="#1a1311"/>
      <path id="패스_67" data-name="패스 67" d="M392.569,512.873H394l2.73,4.386h.017v-4.386h1.346v6.535h-1.438l-2.718-4.375h-.016v4.375h-1.349Z" fill="#1a1311"/>
      <path id="패스_68" data-name="패스 68" d="M400.089,512.873h1.436v6.535h-1.436Z" fill="#1a1311"/>
      <path id="패스_69" data-name="패스 69" d="M406.561,519.408h-1.623l-2.122-6.535H404.3l1.456,4.6h.017l1.472-4.6h1.485Z" fill="#1a1311"/>
      <path id="패스_70" data-name="패스 70" d="M410.02,512.873h4.89v1.207h-3.452v1.4h3.169V516.6h-3.169v1.6h3.525v1.205H410.02Z" fill="#1a1311"/>
      <path id="패스_71" data-name="패스 71" d="M416.688,512.873h3.523a2.168,2.168,0,0,1,.789.136,1.73,1.73,0,0,1,.608.391,1.71,1.71,0,0,1,.385.576,1.821,1.821,0,0,1,.134.7,1.9,1.9,0,0,1-.254,1.01,1.522,1.522,0,0,1-.782.631v.019a1.064,1.064,0,0,1,.7.534,2.432,2.432,0,0,1,.249,1c0,.023.006.1.012.217a7.886,7.886,0,0,0,.078.8,1.234,1.234,0,0,0,.188.53h-1.44a1.412,1.412,0,0,1-.112-.416c-.024-.162-.042-.364-.061-.618-.019-.23-.035-.408-.054-.529a1.262,1.262,0,0,0-.317-.76,1.092,1.092,0,0,0-.773-.23h-1.439v2.553h-1.436Zm1.436,2.959H419.7a1.061,1.061,0,0,0,.742-.227.913.913,0,0,0,.247-.709.878.878,0,0,0-.247-.687,1.086,1.086,0,0,0-.742-.221h-1.575Z" fill="#1a1311"/>
      <path id="패스_72" data-name="패스 72" d="M425.012,517.238a1.056,1.056,0,0,0,.4.914,1.724,1.724,0,0,0,1.041.3,2.663,2.663,0,0,0,.424-.039,1.581,1.581,0,0,0,.414-.129.781.781,0,0,0,.316-.252.66.66,0,0,0,.118-.4.58.58,0,0,0-.118-.367.952.952,0,0,0-.32-.258,2.9,2.9,0,0,0-.439-.179c-.161-.049-.374-.1-.643-.164-.176-.049-.316-.086-.42-.108-.286-.082-.542-.166-.762-.248a2.528,2.528,0,0,1-.6-.336,1.485,1.485,0,0,1-.432-.521,1.663,1.663,0,0,1-.158-.758,1.727,1.727,0,0,1,.206-.858,1.751,1.751,0,0,1,.559-.623,2.449,2.449,0,0,1,.784-.369,3.2,3.2,0,0,1,.895-.127,3.919,3.919,0,0,1,1,.121,2.391,2.391,0,0,1,.835.375,1.833,1.833,0,0,1,.571.659,2.012,2.012,0,0,1,.212.953h-1.392a.9.9,0,0,0-.371-.768,1.662,1.662,0,0,0-.92-.221,1.294,1.294,0,0,0-.7.182.614.614,0,0,0-.295.559.536.536,0,0,0,.077.306.591.591,0,0,0,.254.2,3.313,3.313,0,0,0,.485.174c.2.065.53.151.99.272a.773.773,0,0,1,.146.035.168.168,0,0,0,.054.006,5.587,5.587,0,0,1,.606.185,2.779,2.779,0,0,1,.576.307,1.6,1.6,0,0,1,.5.559,1.67,1.67,0,0,1,.2.847,1.861,1.861,0,0,1-.716,1.516,3.1,3.1,0,0,1-2,.58,4.024,4.024,0,0,1-1.057-.137,2.712,2.712,0,0,1-.89-.422,2.084,2.084,0,0,1-.613-.736,2.248,2.248,0,0,1-.225-1.033Z" fill="#1a1311"/>
      <path id="패스_73" data-name="패스 73" d="M430.7,512.873h1.438v6.535H430.7Z" fill="#1a1311"/>
      <path id="패스_74" data-name="패스 74" d="M435.587,514.08h-1.961v-1.207h5.356v1.207h-1.957v5.328h-1.438Z" fill="#1a1311"/>
      <path id="패스_75" data-name="패스 75" d="M442.16,516.865l-2.41-3.992h1.623l1.527,2.582,1.522-2.582h1.6L443.6,516.9v2.508H442.16Z" fill="#1a1311"/>
      <path id="패스_76" data-name="패스 76" d="M450.519,514.814a3.242,3.242,0,0,1,.637-1.105,2.879,2.879,0,0,1,1.016-.731,3.568,3.568,0,0,1,2.684,0,2.891,2.891,0,0,1,1.019.731,3.178,3.178,0,0,1,.637,1.105,4.2,4.2,0,0,1,.216,1.356,4.036,4.036,0,0,1-.216,1.322,3.14,3.14,0,0,1-.637,1.086,2.923,2.923,0,0,1-1.019.728,3.594,3.594,0,0,1-2.684,0,2.856,2.856,0,0,1-1.016-.726,3.13,3.13,0,0,1-.637-1.082,3.986,3.986,0,0,1-.218-1.328A4.1,4.1,0,0,1,450.519,514.814Zm1.32,2.174a2.109,2.109,0,0,0,.315.7,1.515,1.515,0,0,0,.555.492,1.725,1.725,0,0,0,.8.18,1.7,1.7,0,0,0,.811-.186,1.494,1.494,0,0,0,.555-.49,2.209,2.209,0,0,0,.311-.7,3.268,3.268,0,0,0,.1-.818,3.5,3.5,0,0,0-.1-.852,2.333,2.333,0,0,0-.311-.717,1.573,1.573,0,0,0-.555-.492,1.877,1.877,0,0,0-1.621,0,1.572,1.572,0,0,0-.555.492,2.26,2.26,0,0,0-.309.717,3.453,3.453,0,0,0-.1.852A3.222,3.222,0,0,0,451.839,516.988Z" fill="#1a1311"/>
      <path id="패스_77" data-name="패스 77" d="M458.44,512.873h4.6v1.207h-3.158v1.513h2.734v1.116h-2.734v2.7H458.44Z" fill="#1a1311"/>
      <path id="패스_78" data-name="패스 78" d="M469.666,512.873h1.472l2.446,6.535h-1.493l-.495-1.453h-2.444l-.513,1.453h-1.455Zm-.14,4.007h1.7l-.825-2.4h-.019Z" fill="#1a1311"/>
      <path id="패스_79" data-name="패스 79" d="M474.886,512.873h3.522a2.148,2.148,0,0,1,.786.136,1.742,1.742,0,0,1,.613.391,1.681,1.681,0,0,1,.38.576,1.785,1.785,0,0,1,.136.7,1.907,1.907,0,0,1-.253,1.01,1.521,1.521,0,0,1-.783.631v.019a1.059,1.059,0,0,1,.7.534,2.4,2.4,0,0,1,.249,1c0,.023,0,.1.01.217.019.31.045.578.078.8a1.274,1.274,0,0,0,.189.53h-1.437a1.412,1.412,0,0,1-.115-.416c-.023-.162-.042-.364-.061-.618-.017-.23-.037-.408-.053-.529a1.267,1.267,0,0,0-.316-.76,1.1,1.1,0,0,0-.775-.23h-1.439v2.553h-1.433Zm1.433,2.959h1.576a1.055,1.055,0,0,0,.741-.227.906.906,0,0,0,.249-.709.872.872,0,0,0-.249-.687,1.079,1.079,0,0,0-.741-.221h-1.576Z" fill="#1a1311"/>
      <path id="패스_80" data-name="패스 80" d="M483.509,514.08h-1.958v-1.207h5.356v1.207h-1.959v5.328h-1.439Z" fill="#1a1311"/>
      <path id="패스_81" data-name="패스 81" d="M495.282,518.761a2.716,2.716,0,0,1-.843.586,2.558,2.558,0,0,1-.995.192,2.515,2.515,0,0,1-.829-.135,1.939,1.939,0,0,1-.674-.381,1.819,1.819,0,0,1-.614-1.443,1.666,1.666,0,0,1,.411-1.118,3.2,3.2,0,0,1,1.055-.781,3.8,3.8,0,0,1-.468-.693,1.567,1.567,0,0,1-.155-.7,1.361,1.361,0,0,1,.137-.6,1.438,1.438,0,0,1,.381-.473,1.611,1.611,0,0,1,.549-.3,1.877,1.877,0,0,1,.638-.11,1.973,1.973,0,0,1,1.285.409,1.4,1.4,0,0,1,.507,1.158,1.505,1.505,0,0,1-.31.943,2.629,2.629,0,0,1-.852.688l.841,1.035a2.328,2.328,0,0,0,.239-.779h1.127a3.452,3.452,0,0,1-.205.867,3.13,3.13,0,0,1-.427.746l1.326,1.543h-1.59Zm-1.8-2.236a2.055,2.055,0,0,0-.654.445.893.893,0,0,0-.26.637.8.8,0,0,0,.279.609.954.954,0,0,0,.654.25,1.225,1.225,0,0,0,.593-.144,1.99,1.99,0,0,0,.507-.432Zm.875-2.672a.551.551,0,0,0-.417-.186.568.568,0,0,0-.411.168.539.539,0,0,0-.175.413.879.879,0,0,0,.107.431,2.915,2.915,0,0,0,.323.448.73.73,0,0,1,.083.1,2.2,2.2,0,0,0,.5-.416.782.782,0,0,0,.164-.521A.6.6,0,0,0,494.353,513.853Z" fill="#1a1311"/>
      <path id="패스_82" data-name="패스 82" d="M501.948,512.873h2.821a2.887,2.887,0,0,1,2.147.828,3.284,3.284,0,0,1,.818,2.4,4.539,4.539,0,0,1-.181,1.324,3,3,0,0,1-.559,1.047,2.45,2.45,0,0,1-.934.69,3.145,3.145,0,0,1-1.291.242h-2.821Zm1.44,5.33h1.279a1.82,1.82,0,0,0,.619-.106,1.464,1.464,0,0,0,.518-.338,1.615,1.615,0,0,0,.36-.615,2.71,2.71,0,0,0,.135-.9,2.579,2.579,0,0,0-.433-1.606,1.738,1.738,0,0,0-1.456-.554h-1.022Z" fill="#1a1311"/>
      <path id="패스_83" data-name="패스 83" d="M509.467,512.873h4.889v1.207h-3.45v1.4h3.167V516.6h-3.167v1.6h3.524v1.205h-4.963Z" fill="#1a1311"/>
      <path id="패스_84" data-name="패스 84" d="M517.112,517.238a1.053,1.053,0,0,0,.407.914,1.711,1.711,0,0,0,1.04.3,2.661,2.661,0,0,0,.423-.039,1.552,1.552,0,0,0,.413-.129.762.762,0,0,0,.316-.252.661.661,0,0,0,.121-.4.582.582,0,0,0-.121-.367.929.929,0,0,0-.319-.258,2.912,2.912,0,0,0-.44-.179c-.157-.049-.374-.1-.641-.164-.177-.049-.317-.086-.423-.108-.285-.082-.538-.166-.759-.248a2.488,2.488,0,0,1-.6-.336,1.474,1.474,0,0,1-.432-.521,1.65,1.65,0,0,1-.159-.758,1.758,1.758,0,0,1,.2-.858,1.8,1.8,0,0,1,.559-.623,2.475,2.475,0,0,1,.787-.369,3.2,3.2,0,0,1,.9-.127,3.972,3.972,0,0,1,1,.121,2.411,2.411,0,0,1,.834.375,1.821,1.821,0,0,1,.57.659,2.013,2.013,0,0,1,.212.953h-1.391a.894.894,0,0,0-.373-.768,1.648,1.648,0,0,0-.918-.221,1.29,1.29,0,0,0-.7.182.615.615,0,0,0-.294.559.536.536,0,0,0,.076.306.6.6,0,0,0,.254.2,3.4,3.4,0,0,0,.485.174c.2.065.53.151.989.272a.724.724,0,0,1,.146.035.171.171,0,0,0,.055.006,5.129,5.129,0,0,1,.6.185,2.782,2.782,0,0,1,.581.307,1.625,1.625,0,0,1,.5.559,1.67,1.67,0,0,1,.2.847,1.866,1.866,0,0,1-.716,1.516,3.1,3.1,0,0,1-2.005.58,4.035,4.035,0,0,1-1.057-.137,2.707,2.707,0,0,1-.889-.422,2.14,2.14,0,0,1-.614-.736,2.261,2.261,0,0,1-.223-1.033Z" fill="#1a1311"/>
      <path id="패스_85" data-name="패스 85" d="M522.809,512.873h1.434v6.535h-1.434Z" fill="#1a1311"/>
      <path id="패스_86" data-name="패스 86" d="M530.966,518.67a2.227,2.227,0,0,1-.825.683,2.317,2.317,0,0,1-.969.213,3.363,3.363,0,0,1-1.342-.26,2.842,2.842,0,0,1-1.017-.726,3.191,3.191,0,0,1-.636-1.082,3.913,3.913,0,0,1-.22-1.328,4.022,4.022,0,0,1,.22-1.356,3.306,3.306,0,0,1,.636-1.105,2.866,2.866,0,0,1,1.017-.731,3.364,3.364,0,0,1,1.342-.262,3.114,3.114,0,0,1,.978.157,2.824,2.824,0,0,1,.858.449,2.325,2.325,0,0,1,.621.726,2.461,2.461,0,0,1,.3.975h-1.373a1.35,1.35,0,0,0-.492-.814,1.429,1.429,0,0,0-.89-.284,1.7,1.7,0,0,0-.813.184,1.554,1.554,0,0,0-.552.492,2.261,2.261,0,0,0-.31.717,3.454,3.454,0,0,0-.1.852,3.222,3.222,0,0,0,.1.818,2.09,2.09,0,0,0,.316.7,1.522,1.522,0,0,0,.552.492,1.741,1.741,0,0,0,.807.18,1.417,1.417,0,0,0,1.556-1.41h-1.446v-1.075h2.747v3.534h-.915Z" fill="#1a1311"/>
      <path id="패스_87" data-name="패스 87" d="M533.921,512.873h1.429l2.73,4.386h.019v-4.386h1.345v6.535h-1.438l-2.721-4.375h-.016v4.375h-1.348Z" fill="#1a1311"/>
    </g>
  </g>
</svg>
