<svg id="구성_요소_18_1" data-name="구성 요소 18 – 1" xmlns="http://www.w3.org/2000/svg" width="204" height="46" viewBox="0 0 204 46">
  <rect id="사각형_43" data-name="사각형 43" width="204" height="46" fill="#1996c9"/>
  <path id="패스_116" data-name="패스 116" d="M10.53-13.284H6.66v-1.674H4.806v1.674H.936v1.476H10.53ZM3.564-8.136c0-.972.864-1.548,2.16-1.548S7.9-9.108,7.9-8.136c0,.954-.882,1.53-2.178,1.53S3.564-7.182,3.564-8.136Zm6.1,0c0-1.782-1.6-2.97-3.942-2.97S1.782-9.918,1.782-8.136c0,1.764,1.6,2.952,3.942,2.952S9.666-6.372,9.666-8.136ZM2.916-2.412h8.838v3.8h1.854V-3.906H2.916Zm13-8.1h-2.3v-4.356H11.754V-4.7h1.854V-8.982h2.3Zm12.87-1.134A34.329,34.329,0,0,1,28.206-4.5l1.854.216a36.888,36.888,0,0,0,.576-7.362v-1.71h-11.7v1.512h9.846Zm-2.07,9.378V-7.524H24.876v5.256H22.7V-7.524H20.862v5.256H17.478v1.53H32.166v-1.53Zm25.254-11.34h-5.6v-1.458H44.5v1.458H38.808v1.422H51.966ZM41.67-2.088h7.506V-.2H41.67ZM39.834,1.188h11.16v-4.68H39.834Zm2.232-10.53c0-.72,1.152-1.044,3.366-1.044,2.2,0,3.366.324,3.366,1.044,0,.7-1.17,1.044-3.366,1.044C43.218-8.3,42.066-8.64,42.066-9.342Zm4.3,3.33V-7.038c2.826-.144,4.392-.936,4.392-2.3,0-1.53-1.908-2.322-5.328-2.322-3.438,0-5.346.792-5.346,2.322,0,1.368,1.566,2.16,4.41,2.3v1.026H38.07v1.458H52.776V-6.012Zm11.286-5.4h1.638v7.29c-.558.036-1.1.054-1.638.072Zm3.33,0H62.19v-1.494h-7.4v1.494h1.17v7.4H54.468l.216,1.53a45.143,45.143,0,0,0,7.938-.576L62.5-4.41c-.468.072-.99.126-1.512.18ZM63.666-8.8H61.74v1.638h1.926V.576h1.746V-14.508H63.666Zm3.186-6.066V1.386h1.782V-14.868Zm15.858-.018V1.422h1.872V-14.886ZM75.924-13.68c-2.412,0-4.176,2.232-4.176,5.724,0,3.528,1.764,5.742,4.176,5.742,2.43,0,4.194-2.214,4.194-5.742C80.118-11.448,78.354-13.68,75.924-13.68Zm0,1.674c1.422,0,2.412,1.53,2.412,4.05,0,2.556-.99,4.086-2.412,4.086-1.4,0-2.394-1.53-2.394-4.086C73.53-10.476,74.52-12.006,75.924-12.006Zm17.838.288H97.38v-1.53H88.272v1.53H91.89v1.548A7.949,7.949,0,0,1,87.7-3.186L88.758-1.71a8.384,8.384,0,0,0,4.086-5.112,7.967,7.967,0,0,0,4.1,4.7l1.026-1.458a7.333,7.333,0,0,1-4.212-6.588Zm5.508-3.15V1.386h1.872V-14.868Z" transform="translate(52 31)" fill="#fff"/>
</svg>
