<svg xmlns="http://www.w3.org/2000/svg" width="568.133" height="215.952" viewBox="0 0 568.133 215.952">
  <path id="합치기_1" data-name="합치기 1" d="M2523.716,207.012c0-2.42,2.6-3.96,6.42-3.96,3.8,0,6.4,1.54,6.4,3.96,0,2.4-2.6,3.94-6.4,3.94C2526.316,210.952,2523.716,209.412,2523.716,207.012Zm3.2,0c0,1,1.16,1.461,3.22,1.461,2.041,0,3.2-.461,3.2-1.461,0-1.02-1.16-1.48-3.2-1.48C2528.076,205.532,2526.916,205.992,2526.916,207.012Zm44.96.16c0-2.38,2.54-3.76,6.52-3.76,4,0,6.54,1.381,6.54,3.76s-2.54,3.76-6.54,3.76C2574.416,210.932,2571.876,209.552,2571.876,207.172Zm3.2,0c0,.941,1.06,1.3,3.32,1.3s3.34-.36,3.34-1.3c0-.92-1.08-1.3-3.34-1.3S2575.076,206.252,2575.076,207.172Zm-23.04,3.76v-5.86h-6.8v-2.58h16.979v2.58h-6.94v5.86Zm-178.1-.14v-18.48h2.64v18.48Zm98.179-.04v-4.02h-9.64v-2.12h12.281v6.14Zm-42.539,0v-4.02h-9.64v-2.12h12.28v6.14Zm-136.54,0v-4.02h-9.64v-2.12h12.28v6.14Zm207.059-3.58c0-2.26,2.4-3.6,6.24-3.6,3.82,0,6.22,1.34,6.22,3.6,0,2.24-2.4,3.56-6.22,3.56C2502.5,210.732,2500.1,209.412,2500.1,207.172Zm2.62,0c0,1.04,1.26,1.54,3.621,1.54,2.339,0,3.6-.5,3.6-1.54,0-1.06-1.261-1.56-3.6-1.56C2503.976,205.612,2502.716,206.112,2502.716,207.172Zm-110.82,3.56v-18.42h2.64v7.02h2.68v2.18h-2.68v9.22Zm-37.38,0v-3.6h-10.16v-2.08h5.14v-1.58h-6.98v-2.1h16.64v2.1h-7.02v1.58h5.02v5.68Zm-78.84,0v-9.22h-1.661v8.36h-2.46v-17.22h2.46v6.74h1.661v-7.1h2.5v18.44Zm-75.16,0v-18.44h2.5v18.44Zm290.379-.021V192.292h2.64v7.42h2.48v2.2h-2.48v8.8Zm-42.54,0V192.292H2451v7.42h2.479v2.2H2451v8.8Zm-210.28,0V192.292h2.5v18.419Zm7.42-.12v-4.84h10.1v-1h-10.12v-1.96h5.08v-1.18h-6.98v-2.08h16.64v2.08h-7.02v1.18h5v4.781h-10.079v1.04h10.56v1.98Zm156.46-.18v-6.16h2.64v4.06h10.08v2.1Zm-74.88,0v-5.96h2.64v3.86h9.86v2.1Zm-118.86,0v-5.48h2.561v-2.46c-1.62.08-3.16.1-4.541.1l-.34-2.1a100.994,100.994,0,0,0,11.721-.561l.18,1.88a39.992,39.992,0,0,1-4.4.52v3.48h-2.54v2.52h11.02v2.1Zm-11.479-.48v-6.04h-2.561v-2.12h2.561v-2.5h-2.22a12.379,12.379,0,0,1-6.1,7.64l-1.5-1.84c3.64-2.22,5.24-4.88,5.579-8.48h-4.54v-2.1h7.16a23.016,23.016,0,0,1-.16,2.68h1.78v-4.46h2.46v17.221Zm37.679-.04v-5.7h-2.1c-.68,1.78-1.86,2.8-3.379,2.8-2.461,0-4-2.52-4-6.7,0-4.161,1.54-6.681,4-6.681,1.5,0,2.679.98,3.36,2.76h2.12v-3.76h2.46v17.28Zm-7.12-9.6c0,2.82.6,4.22,1.641,4.22,1.02,0,1.619-1.4,1.619-4.22s-.6-4.2-1.619-4.2C2227.9,196.092,2227.3,197.472,2227.3,200.292Zm5.621,0a16.229,16.229,0,0,1-.1,1.76h1.6v-3.559h-1.62A12.729,12.729,0,0,1,2232.916,200.292Zm67.06,8.22v-2.12h3.5v-5.819h2.6v5.819h1.959v-5.819h2.58v5.819h6.04v2.12Zm79.74-3.34c3.02-1.4,4.52-4.86,4.52-7.9v-1.02h-3.82v-2.18h10.12v2.18h-3.66v1.02a8.242,8.242,0,0,0,4.48,7.46l-1.46,2.08a8.6,8.6,0,0,1-4.3-4.96,9,9,0,0,1-4.4,5.42Zm99.18-.3c1.02,0,2.139,0,3.3-.021v-5.44h2.6v5.359c1.78-.059,3.58-.18,5.26-.38l.139,1.9a70.4,70.4,0,0,1-11.06.741Zm-42.54,0c1.02,0,2.14,0,3.3-.021v-5.44h2.6v5.359c1.779-.059,3.579-.18,5.26-.38l.14,1.9a70.415,70.415,0,0,1-11.06.741Zm-173.46,1.72v-12.16h6.819v2.139H2265.5v7.84a30.99,30.99,0,0,0,5.04-.46l.2,2.14a33.775,33.775,0,0,1-6.56.5Zm99.52-.2v-12.44h8.9v2.14h-6.26v8.1a39.7,39.7,0,0,0,7.5-.54l.24,2.18a44.529,44.529,0,0,1-8.761.56Zm-143.581-.12v-1.46h-3.459v-1.8h3.459v-10.7h2.64v13.96Zm117.64-.5v-5.961h-3.18v-2.139h3.18v-5.36h2.641v13.46Zm75.08-.22v-13.22h2.66v13.22Zm-99.679-1.62a41.493,41.493,0,0,0,.62-7.94h-10.9v-2.1h13.54v1.779a46.74,46.74,0,0,1-.62,8.52Zm12.06-2.04c3.84-1.2,6.26-3.4,6.7-6.1H2324.9v-2.1h8.56c0,4.981-3.08,8.62-8.44,10.32Zm148.179,1.96v-11.54h2.641v4.74h2.44v2.18h-2.44v4.62Zm-42.539,0v-11.54h2.64v4.74h2.44v2.18h-2.44v4.62Zm-136.54,0v-11.54h2.64v4.74h2.44v2.18h-2.44v4.62Zm228.18-2.96c3.86-1,5.92-2.859,6.36-5.06h-5.44v-2.54h8.98c0,5.16-3.021,8.66-8.6,10.18Zm-60.06-.92c0-2,1.879-3.38,4.52-3.38,2.659,0,4.52,1.38,4.52,3.38,0,2.02-1.86,3.4-4.52,3.4C2463.035,203.372,2461.156,201.992,2461.156,199.972Zm2.519,0c0,.94.8,1.4,2,1.4,1.18,0,2-.46,2-1.4,0-.92-.82-1.38-2-1.38C2464.475,198.592,2463.675,199.052,2463.675,199.972Zm-45.059,0c0-2,1.88-3.38,4.52-3.38,2.66,0,4.52,1.38,4.52,3.38,0,2.02-1.859,3.4-4.52,3.4C2420.5,203.372,2418.616,201.992,2418.616,199.972Zm2.52,0c0,.94.8,1.4,2,1.4,1.18,0,2-.46,2-1.4,0-.92-.82-1.38-2-1.38C2421.936,198.592,2421.136,199.052,2421.136,199.972Zm-139.06,0c0-2,1.88-3.38,4.52-3.38,2.66,0,4.52,1.38,4.52,3.38,0,2.02-1.859,3.4-4.52,3.4C2283.956,203.372,2282.076,201.992,2282.076,199.972Zm2.52,0c0,.94.8,1.4,2,1.4,1.18,0,2-.46,2-1.4,0-.92-.82-1.38-2-1.38C2285.4,198.592,2284.6,199.052,2284.6,199.972Zm213,1.32a5.964,5.964,0,0,0,4.34-5.64h-3.66v-2.119h9.96v2.119h-3.6c.04,2.1,1.3,4.16,4.2,5.02l-1.26,2.04a6.788,6.788,0,0,1-4.219-3.341,7.178,7.178,0,0,1-4.441,3.981Zm12.119,1.96v-10.94h2.641v4.24h2.44v2.16h-2.44v4.541Zm71.9-.18v-2h-3.84a5.147,5.147,0,0,1-3.56,1.34,4.682,4.682,0,1,1,0-9.34,5.094,5.094,0,0,1,3.62,1.4h3.78v-2.32h3.24v10.921Zm-9.36-5.321a1.96,1.96,0,1,0,1.96-1.959A1.807,1.807,0,0,0,2572.256,197.752Zm6.98,0a4.983,4.983,0,0,1-.06.78h2.44v-1.52h-2.44A4.49,4.49,0,0,1,2579.236,197.752Zm-180.06.42a5.023,5.023,0,1,1,5.02,4.66A4.745,4.745,0,0,1,2399.176,198.172Zm2.58,0a2.3,2.3,0,0,0,2.44,2.38,2.391,2.391,0,1,0-2.44-2.38Zm131.34,4.62v-10.66h3.24v4.14h2.34v2.62h-2.34v3.9Zm-46.86-.32a37.474,37.474,0,0,0,.481-6.24h-6.881v-2.1h9.481v1.5a40.021,40.021,0,0,1-.5,7.06Zm-42.54,0a37.474,37.474,0,0,0,.481-6.24H2437.3v-2.1h9.481v1.5a40.021,40.021,0,0,1-.5,7.06Zm103.081-5.5c0-2.58,2.841-4.261,6.9-4.261s6.9,1.68,6.9,4.261c0,2.62-2.84,4.28-6.9,4.28S2546.776,199.592,2546.776,196.972Zm3.32,0c0,1.18,1.36,1.74,3.58,1.74,2.24,0,3.579-.56,3.579-1.74,0-1.16-1.339-1.72-3.579-1.72C2551.456,195.252,2550.1,195.812,2550.1,196.972Zm-199.26,1.08c-1.16,1.46-3.46,2.42-6.84,2.66l-.78-1.959c4-.26,5.8-1.44,6.1-2.721h-5.22v-2.039h5.4v-1.661h2.64v1.661h5.421v2.039h-5.22c.3,1.281,2.08,2.461,6.079,2.721l-.78,1.959C2354.256,200.472,2351.975,199.512,2350.836,198.052Zm-143.6-1.82c0-1.96,1.9-3.3,4.6-3.3,2.68,0,4.58,1.34,4.58,3.3s-1.9,3.28-4.58,3.28C2209.135,199.512,2207.236,198.192,2207.236,196.232Zm2.5,0c0,.9.86,1.36,2.1,1.36,1.22,0,2.081-.46,2.081-1.36s-.86-1.381-2.081-1.381C2210.6,194.852,2209.736,195.332,2209.736,196.232Zm42.16-.68c-1.16,1.68-3.46,2.88-6.64,3.22l-.86-1.98c4.14-.4,6.14-2.26,6.14-4.04v-.34h2.721v.34c0,1.78,2,3.64,6.14,4.04l-.88,1.98C2255.336,198.432,2253.056,197.232,2251.9,195.552Zm208.36.46v-2.08h4.08v-1.72H2467v1.72h4.1v2.08Zm-42.54,0v-2.08h4.08v-1.72h2.66v1.72h4.1v2.08Zm-136.54,0v-2.08h4.08v-1.72h2.66v1.72h4.1v2.08Zm-127.294-58.578V128.7h-3.15c-.216,3.15-1.872,5.094-4.1,5.094-2.394,0-4.1-2.214-4.1-5.742,0-3.492,1.71-5.724,4.1-5.724,2.178,0,3.834,1.872,4.086,4.86h3.168v-6.066h1.872v16.308Zm-9.594-9.378c0,2.574.954,4.086,2.34,4.086,1.4,0,2.358-1.512,2.358-4.086,0-2.52-.954-4.05-2.358-4.05C2145.242,124.006,2144.288,125.536,2144.288,128.056Zm-60.822,9.378V121.126h1.872v16.308Zm437.526-.018v-16.29h1.854v6.264h2.538v1.53h-2.538v8.5Zm-87.156,0v-5.274h-6.39v-1.494h14.742v1.494h-6.5v5.274Zm-31.932,0v-6.75h-3.06v-1.512h3.06v-2.916h-2.97v-1.512h2.97v-3.618h1.854v16.308Zm-339.048,0v-16.29h1.872v16.29Zm442.422-.018V121.144h1.854V137.4Zm-50.418,0v-4.176h-8.838v-1.494h10.692v5.67Zm-91.008,0V121.144h1.872v6.678h2.394v1.566h-2.394v8.01Zm-74-2.286c0-1.4,1.278-2.3,3.078-2.3,1.782,0,3.06.9,3.06,2.3s-1.278,2.286-3.06,2.286C2291.132,137.4,2289.854,136.516,2289.854,135.112Zm1.638,0c0,.63.612,1.008,1.44,1.008.81,0,1.422-.378,1.422-1.008,0-.648-.612-1.008-1.422-1.008C2292.1,134.1,2291.492,134.464,2291.492,135.112Zm-17.154,2.286V121.144h1.782V137.4Zm-58.968-2.97c0-1.872,2.124-2.988,5.508-2.988s5.508,1.116,5.508,2.988c0,1.854-2.124,2.97-5.508,2.97S2215.37,136.282,2215.37,134.428Zm1.854,0c0,.99,1.368,1.548,3.654,1.548s3.654-.558,3.654-1.548c0-1.008-1.368-1.566-3.654-1.566S2217.224,133.42,2217.224,134.428Zm40.554,2.952V121.144h1.764V137.38Zm-157.158,0v-8.442h-1.926v7.65h-1.746v-15.12h1.746v5.958h1.926v-6.282h1.764V137.38Zm-54.792,0v-3.528h-9.414v-1.476h4.788v-1.638h-6.426v-1.494h14.706v1.494h-6.426v1.638h4.626v5Zm339.516-.018v-4.356h-9.108V131.53H2387.2v5.832Zm-204.156-.108V133.24h9.27v-1.224h-9.306V130.63h11.124v3.924h-9.252v1.278h9.72v1.422Zm-19.6,0v-4.212h8.784v-1.368h-8.82v-1.4h10.656v4.1h-8.8v1.44h9.288v1.44Zm-27.72,0V130.4h5.22v6.858Zm1.566-1.35h2.052v-4.158h-2.052Zm95.436,1.332v-4.158h9.27v-1.26h-9.306V130.4h11.124v4.032H2232.7V135.8h9.72v1.44Zm-103.176,0v-4.158h3.528v-1.3h-3.564V130.4H2133v3.96h-3.528v1.494a21.4,21.4,0,0,0,3.78-.27l.144,1.368a24.682,24.682,0,0,1-4.824.288Zm280.89-.018v-3.726h9.36V132.34h-9.4v-1.278h11.232V134.7h-9.36v1.242h9.846v1.278Zm-301.77,0v-3.726h9.36V132.34h-9.4v-1.278h11.232V134.7h-9.36v1.242h9.846v1.278Zm373.068-.018v-6.318h1.854v1.674h6.966v-1.674h1.836V137.2Zm1.854-1.494h6.966v-1.692h-6.966ZM2339.318,137.2v-5.976h10.638V137.2Zm1.818-1.476h7V132.7h-7ZM2198.882,137.2v-6.57h1.836v1.836h6.894V130.63h1.836v6.57Zm1.836-1.494h6.894v-1.8h-6.894Zm121.554,1.386v-4.824h1.872v3.312h9.18v1.512Zm-21.042,0v-4.734h1.872v3.222h9.342v1.512Zm-279.954,0v-5.184h1.854v3.672h8.982v1.512Zm263.124-.108v-6.192h1.8v4.662a11.451,11.451,0,0,0,2.934-.522l.306,1.476a12.587,12.587,0,0,1-4.194.576Zm-13.464-.36V129.1h-2.988a12.125,12.125,0,0,1-4.752,4.86l-1.062-1.314a9.808,9.808,0,0,0,5.256-8.01h-4.482v-1.494h6.318a13.887,13.887,0,0,1-.684,4.464h2.394V121.54h1.746v15.084Zm-16.416,0V128.83h-1.728c-.162,3.168-1.494,5.112-3.474,5.112-2.106,0-3.492-2.214-3.492-5.778s1.386-5.76,3.492-5.76c1.944,0,3.258,1.854,3.456,4.9h1.746v-5.85h1.728v15.174Zm-7-8.46c0,2.574.684,4.032,1.8,4.032s1.8-1.458,1.8-4.032-.684-4.014-1.8-4.014S2247.518,125.59,2247.518,128.164Zm279.684,6.642a1.389,1.389,0,1,1,2.772,0,1.387,1.387,0,1,1-2.772,0Zm-66.618.5v-1.53h14.742v1.53Zm-107.622-2.862c.99,0,2.088-.018,3.222-.036v-4.9H2358v4.842c1.692-.072,3.4-.162,4.986-.378l.09,1.368a62.712,62.712,0,0,1-9.918.63Zm-301.536,0a74.312,74.312,0,0,0,10.458-.54l.126,1.35a56.579,56.579,0,0,1-10.35.72Zm339.444,1.26V127.1h5.31v-3.06h-5.346v-1.494H2398V128.6h-5.31v3.582a42.07,42.07,0,0,0,6.354-.45l.144,1.53a42.085,42.085,0,0,1-7.074.45Zm-301.842-.072V127.3h4.284v-2.97h-4.32v-1.512h6.1v5.976h-4.284v3.312a32.249,32.249,0,0,0,5.13-.414l.162,1.512a32.917,32.917,0,0,1-5.976.432Zm421.884-.216V122.674h7.56v1.512h-5.706v7.686a39.244,39.244,0,0,0,6.876-.522l.2,1.53a40.117,40.117,0,0,1-7.6.54Zm-438.084,0V122.674h7.632V133.42Zm1.818-1.494h4V124.15h-4Zm256.284,1.422v-12.2h1.872v5.148h2.16v1.53h-2.16v5.526Zm163.728-.054V122.728h1.836v8.982a37.648,37.648,0,0,0,7.29-.738l.2,1.548a38.825,38.825,0,0,1-7.938.774Zm-464.814-.18v-5.562h-3.2v-1.53h3.2v-4.878h1.854v11.97Zm259-.81v-1.368h3.186v-1.3h1.8v1.3H2297V132.3Zm-270.414-2.412c3.582-1.17,5.958-3.33,6.3-5.994h-5.454v-1.512h7.452c0,4.284-2.862,7.47-7.488,8.982Zm206.1,1.242v-4.3h-1.71v3.78h-1.746V121.45h1.746v3.87h1.71v-4.158h1.764v9.972Zm74.844-.054v-1.512h14.706v1.512Zm155.484-.108v-9.846h1.854V125.3h2.3v1.53h-2.3v4.14Zm-135.036-1.53c.972,0,2.088,0,3.24-.036v-3.33h1.836v3.276a45.64,45.64,0,0,0,5.04-.432l.126,1.35a60.887,60.887,0,0,1-10.044.684Zm65.52,1.386v-1.962H2381.4v-1.512h3.942V125.41h-3.69c-1.08,2.538-3.528,4.356-7,5.292l-.72-1.476c3.78-1.008,6.03-3.024,6.372-5.526H2374.8v-1.494h7.488a7.44,7.44,0,0,1-.18,1.71h3.24v-2.79h1.854v9.7Zm-172.89-1.764a5.438,5.438,0,0,0,3.276-4.878v-2.052h1.8v2.052a4.729,4.729,0,0,0,3.168,4.41l-.99,1.386a5.623,5.623,0,0,1-3.06-2.934,6.1,6.1,0,0,1-3.222,3.438Zm135.648,1.314v-9.216h1.854v9.216Zm114.282-.072v-7.74h11.142v1.512h-9.288v4.734h9.414v1.494Zm-102.564-.18a33.878,33.878,0,0,0,.45-5.778h-6.444v-1.494h8.262v1.08a37.98,37.98,0,0,1-.45,6.354Zm84.87.108v-8.01h7.524v1.494h-5.67v1.746h5.364v1.458h-5.364v1.818a36.838,36.838,0,0,0,6.642-.45l.2,1.476a39.261,39.261,0,0,1-7.416.468Zm43.992-.108v-8.982h1.854v8.982Zm-436.5-3.942c0-2.3,1.872-3.906,4.41-3.906s4.428,1.6,4.428,3.906-1.89,3.906-4.428,3.906S2052.182,128.488,2052.182,126.184Zm1.818,0a2.618,2.618,0,1,0,2.592-2.322A2.357,2.357,0,0,0,2054,126.184Zm282.582,2.376a5.594,5.594,0,0,0,4.014-5.22v-1.566h1.89v1.566a5.279,5.279,0,0,0,3.96,4.932l-.9,1.44a6.383,6.383,0,0,1-3.978-3.492,6.735,6.735,0,0,1-4.086,3.8Zm70.254,1.4V128.6h14.742v1.368Zm-301.77,0V128.6h14.742v1.368Zm102.528-.108V126.4h-3.006a3.927,3.927,0,0,1-4.14,3.078c-2.448,0-4.248-1.566-4.248-3.816,0-2.232,1.8-3.8,4.248-3.8a3.943,3.943,0,0,1,4.14,3.024h3.006v-3.744h1.854v8.712Zm-9.612-4.194a2.465,2.465,0,1,0,2.466-2.268A2.249,2.249,0,0,0,2197.982,125.662Zm279.99,4.158V125.1h5.58v-1.692h-5.616V121.9h7.434v4.608h-5.562v1.8a40.717,40.717,0,0,0,7.182-.486l.216,1.512a46.217,46.217,0,0,1-7.866.486Zm-340.758-.108v-8.568h1.872v8.568Zm-11.394-1.476a5.147,5.147,0,0,0,4.032-4.68h-3.528v-1.494h8.892v1.494h-3.474c.054,1.89,1.494,3.654,3.96,4.374l-.846,1.422a6.223,6.223,0,0,1-4.032-3.258,6.428,6.428,0,0,1-4.122,3.6Zm33.12-.054a5.205,5.205,0,0,0,4.032-4.7h-3.528V121.99h8.892v1.494h-3.474c.054,1.89,1.494,3.672,3.96,4.374l-.828,1.422a6.3,6.3,0,0,1-4.05-3.24,6.526,6.526,0,0,1-4.122,3.6Zm20.466,1.368v-1.476h6.426v-1.746h1.854v1.746h6.444v1.476Zm-9.072-.018v-8.388h1.872v8.388Zm123.336-.18v-8.208h1.854v3.546h2.3v1.53h-2.3v3.132Zm-64.548-.144v-1.494h14.706v1.494Zm200.106-.324v-7.11h1.854v2.052h7.434v-2.052h1.854v7.11Zm1.854-1.494h7.434v-2.07h-7.434Zm-147.69,1.494V122.17h7.614v6.714Zm1.836-1.476h3.96v-3.762h-3.96ZM2042.12,125.86c-1.008,1.458-3.186,2.394-6.012,2.628l-.558-1.4c3.294-.252,5.346-1.458,5.526-2.934h-4.842v-1.458h4.968v-1.6h1.854v1.6h4.95v1.458h-4.824c.18,1.476,2.214,2.682,5.526,2.934l-.576,1.4C2045.306,128.254,2043.128,127.318,2042.12,125.86Zm258.822-.918c0-2.052,2.286-3.294,5.8-3.294s5.8,1.242,5.8,3.294c0,2.07-2.286,3.312-5.8,3.312S2300.942,127.012,2300.942,124.942Zm1.908,0c0,1.152,1.494,1.818,3.888,1.818,2.376,0,3.87-.666,3.87-1.818,0-1.134-1.494-1.8-3.87-1.8C2304.344,123.142,2302.85,123.808,2302.85,124.942Zm23.922,2.97a23.126,23.126,0,0,0,.4-4.032h-6.354v-1.512h8.172v.936a24.269,24.269,0,0,1-.4,4.806Zm81.954-.342v-3.654h9.162v-1.1h-9.2V121.54h11.034v3.582h-9.18v1.152h9.468v1.3Zm-301.77,0v-3.654h9.162v-1.1h-9.2V121.54h11.034v3.582h-9.18v1.152h9.468v1.3Zm79.812-3.348c-.864,1.6-3.15,2.7-6.03,2.952l-.612-1.386c2.934-.252,5.04-1.35,5.346-2.7h-4.7V121.63H2192.8v1.458h-4.752c.324,1.35,2.43,2.448,5.364,2.7l-.594,1.386C2189.918,126.922,2187.632,125.842,2186.768,124.222Zm44.226,2.376v-5.022h10.926v1.494h-9.09V125.1h9.252V126.6ZM2046.4,87.434v-3.96h-9.144V81.962h11v5.472Zm102.528-.018V71.126h1.854V77.39h2.538v1.53h-2.538v8.5Zm-86.076,0V71.126h1.872v16.29Zm70.362-.018V71.144h1.854V87.4Zm-41.922-.144v-4.23h8.784V81.692h-8.82v-1.44h10.656v4.122h-8.8V85.8h9.288v1.458Zm-16.416,0V82.88h8.694V81.53h-8.73V80.054h10.584v4.212h-8.694V85.76h9.144v1.494Zm32.976-.054V80.63h1.836v1.8h6.948v-1.8h1.836V87.2Zm1.836-1.494h6.948V83.87h-6.948Zm45.45-.9a1.389,1.389,0,1,1,2.772,0,1.387,1.387,0,1,1-2.772,0Zm-136.908.63v-1.53h6.408v-4.05h-4.68v-7.4h1.872v5.886h9.5v1.512h-4.824v4.05h6.444v1.53Zm33.192-2.988a74.311,74.311,0,0,0,10.458-.54l.126,1.35a56.58,56.58,0,0,1-10.35.72Zm87.426.972V72.674h7.56v1.512h-5.706v7.686a39.242,39.242,0,0,0,6.876-.522l.2,1.53a40.115,40.115,0,0,1-7.6.54Zm-16.254-.126V72.728h1.836V81.71a37.646,37.646,0,0,0,7.29-.738l.2,1.548a38.825,38.825,0,0,1-7.938.774ZM2046.4,81.152V78.38h-2.916V76.886h2.916V74.978h-2.916V73.484h2.916v-2.34h1.854V81.152Zm-10.962-.594v-5.04h5.184V73.574h-5.22V72.08h7.056v4.86h-5.2v2.106a32.314,32.314,0,0,0,5.976-.378l.2,1.494a36.956,36.956,0,0,1-6.8.4Zm16.74-4.374c0-2.3,1.872-3.906,4.41-3.906s4.428,1.6,4.428,3.906-1.89,3.906-4.428,3.906S2052.182,78.488,2052.182,76.184Zm1.818,0a2.618,2.618,0,1,0,2.592-2.322A2.357,2.357,0,0,0,2054,76.184Zm62.622,3.69v-8.73h1.854v8.73Zm-44.442-1.638c3.852-.828,5.85-2.61,6.1-4.878h-5.22V71.864h7.272a7.959,7.959,0,0,1-.126,1.494h3.366V71.144h1.854v8.244h-1.854V77.912H2079.6v-1.44h3.978V74.8h-3.762c-1.008,2.484-3.4,4.14-6.984,4.95Zm27.864,1.242V71.144h1.872v8.334Zm5.346-3.816c0-2.232,1.836-3.78,4.32-3.78s4.3,1.548,4.3,3.78-1.818,3.78-4.3,3.78S2105.39,77.894,2105.39,75.662Zm1.818,0a2.516,2.516,0,1,0,2.5-2.25A2.257,2.257,0,0,0,2107.208,75.662Zm-18.684,2.286a5.507,5.507,0,0,0,4.032-5.148V71.576h1.89V72.8a5.216,5.216,0,0,0,3.96,4.86l-.9,1.458a6.482,6.482,0,0,1-3.978-3.456,6.635,6.635,0,0,1-4.086,3.762Zm168.642-15.514V46.126h1.872V62.434Zm-173.7,0V46.126h1.872V62.434Zm-53.73,0V46.126h1.872V62.434Zm529.2-.018V46.126h1.872v16.29Zm-124.02,0V46.126h1.872v16.29Zm-54.81,0V56.674h-6.372V55.162h14.688v1.512h-6.462v5.742Zm-78.678-3.222c0-1.98,2.088-3.186,5.418-3.186s5.418,1.206,5.418,3.186c0,2-2.088,3.222-5.418,3.222S2301.428,61.192,2301.428,59.194Zm1.836,0c0,1.1,1.332,1.71,3.582,1.71s3.582-.612,3.582-1.71-1.332-1.692-3.582-1.692S2303.264,58.1,2303.264,59.194Zm213.876.234c0-1.872,2.124-2.988,5.508-2.988s5.508,1.116,5.508,2.988c0,1.854-2.124,2.97-5.508,2.97S2517.14,61.282,2517.14,59.428Zm1.854,0c0,.99,1.368,1.548,3.654,1.548s3.654-.558,3.654-1.548c0-1.008-1.368-1.566-3.654-1.566S2518.994,58.42,2518.994,59.428Zm-10.4,2.97V58.6h-8.838V57.106h10.692V62.4Zm-177.084,0V46.144h1.872V62.4Zm-93.168,0V57.376h-3.762V62.4h-1.854V57.376h-3.654v-1.53h14.76v1.53h-3.636V62.4Zm-51.408,0V46.144h1.854V62.4Zm-17.28,0V58.6h-8.838V57.106H2171.5V62.4Zm-15.21,0V54.082h-1.782v7.56h-1.746V46.432h1.746v6.12h1.782V46.126h1.764V62.4Zm-47.646-2.916c0-1.854,2.106-2.916,5.6-2.916,3.51,0,5.6,1.062,5.6,2.916,0,1.872-2.088,2.916-5.6,2.916C2108.9,62.4,2106.794,61.354,2106.794,59.482Zm1.89,0c0,.99,1.332,1.494,3.708,1.494s3.726-.5,3.726-1.494c0-.972-1.35-1.494-3.726-1.494S2108.684,58.51,2108.684,59.482Zm-8.1,2.916V54.136h-1.926v7.452h-1.746V46.468h1.746v6.138h1.926V46.144h1.764V62.4Zm387.342-.018V46.144h1.854V52.7h2.394v1.548h-2.394V62.38Zm44.712-.144V58.078h9.27v-1.26H2532.6V55.4h11.124v4.032h-9.252V60.8h9.72v1.44Zm-124.02,0V58.078h9.27v-1.26h-9.306V55.4h11.124v4.032h-9.252V60.8h9.72v1.44ZM2393.03,62.2V56.044h10.656V62.2Zm1.836-1.494h7V57.52h-7ZM2285.138,62.2V56.116h10.386V62.2Zm1.836-1.494h6.732V57.574h-6.732Zm-92.664,1.386V56.728h1.872V60.58h9.072v1.512Zm-135.972,0V57.016h1.854V60.58h9.09v1.512Zm-20.664,0V57h1.872V60.58h9.09v1.512Zm298.89-1.638v-1.53h6.408V55.09h-4.608V47.368h11.124v1.494h-9.27V53.6h9.414V55.09h-4.806v3.834h6.462v1.53Zm-214.92,0v-1.53h6.408V55.09h-4.608V47.368h11.124v1.494h-9.27V53.6h9.414V55.09h-4.806v3.834h6.462v1.53Zm322.38-.018v-1.53h6.408v-4.05h-4.68v-7.4h1.872v5.886h9.5v1.512H2452.3v4.05h6.444v1.53Zm-181.8-.036V58.888h6.408V55.774c-2.97-.27-5.04-1.908-5.04-4.32,0-2.646,2.52-4.356,5.976-4.356,3.438,0,5.976,1.71,5.976,4.356,0,2.412-2.088,4.068-5.058,4.338v3.1h6.462V60.4Zm3.168-8.946c0,1.764,1.746,2.88,4.176,2.88,2.412,0,4.158-1.116,4.158-2.88s-1.746-2.88-4.158-2.88C2267.138,48.574,2265.392,49.69,2265.392,51.454Zm-52.848,8.856V58.78h14.724v1.53Zm248.04-.036v-1.53h5.472V53.02h1.872v5.724h7.344v1.53Zm-103.41,0v-1.53h3.384V53.488h1.836v5.256h2.178V53.488h1.836v5.256h5.454v1.53Zm-181.692-2.25c4.266-2.052,6.282-4.914,6.606-8.658h-5.8V47.854h7.7c0,4.842-1.944,8.946-7.524,11.646Zm144.45-.2a7.949,7.949,0,0,0,4.194-6.984V49.294h-3.618v-1.53h9.108v1.53H2326v1.548a7.333,7.333,0,0,0,4.212,6.588l-1.026,1.458a7.967,7.967,0,0,1-4.1-4.7,8.384,8.384,0,0,1-4.086,5.112Zm-177.912-.054c2.358-1.368,3.384-4.194,3.384-7.416v-.9h-2.934v-1.53h7.452v1.53H2147.2v.9c0,2.934,1.026,5.6,3.384,6.822l-1.08,1.422a6.956,6.956,0,0,1-3.15-4.122,7.455,7.455,0,0,1-3.2,4.68Zm-70.2-.2c2.592-1.17,4.284-4.284,4.284-7.416V47.494h1.854v2.664a7.873,7.873,0,0,0,4.212,7.128l-1.08,1.476a8.114,8.114,0,0,1-4.032-4.878,8.448,8.448,0,0,1-4.14,5.238Zm405.144-.09c1.224,0,2.628,0,4.086-.036V54.892a3.893,3.893,0,0,1-3.438-3.834c0-2.3,1.854-3.906,4.356-3.906s4.338,1.6,4.338,3.906a3.843,3.843,0,0,1-3.4,3.816v2.5c1.386-.054,2.772-.162,4.068-.342l.162,1.368a59.246,59.246,0,0,1-9.918.612Zm2.448-6.426a2.558,2.558,0,1,0,2.556-2.322A2.313,2.313,0,0,0,2479.412,51.058Zm68.094,6.39a74.31,74.31,0,0,0,10.458-.54l.126,1.35a56.581,56.581,0,0,1-10.35.72Zm-124.02,0a74.31,74.31,0,0,0,10.458-.54l.126,1.35a56.579,56.579,0,0,1-10.35.72Zm-404.712-4.392c0-3.492,1.764-5.724,4.176-5.724,2.43,0,4.194,2.232,4.194,5.724,0,3.528-1.764,5.742-4.194,5.742C2020.538,58.8,2018.774,56.584,2018.774,53.056Zm1.782,0c0,2.556.99,4.086,2.394,4.086,1.422,0,2.412-1.53,2.412-4.086,0-2.52-.99-4.05-2.412-4.05C2021.546,49.006,2020.556,50.536,2020.556,53.056Zm226.116,5.4V47.638h7.74v1.53h-5.9v7.74a37.3,37.3,0,0,0,7.146-.522l.2,1.548a40.945,40.945,0,0,1-7.83.522Zm-157.428-.162V48.016h1.854V56.71a30.167,30.167,0,0,0,4.77-.486l.2,1.584a31.229,31.229,0,0,1-5.742.486Zm-42.84-.108V52.12h-3.384v3.4h-7.488v-8.3h1.836v2.682h3.834V47.224h1.818v3.384h3.384V46.144h1.854V58.186Zm-9.036-4.176h3.834V51.364h-3.834Zm29.646,4.032V52.03h-2.952V50.5h2.952V46.162h1.854v11.88Zm135.738-.126V46.144h1.854V50.9h2.322v1.53h-2.322v5.49Zm268.434-1.224a34.981,34.981,0,0,0,.63-7.434v-.09h-9.7V47.656h11.574v1.6a37.224,37.224,0,0,1-.63,7.632Zm-103.284-.18a34.334,34.334,0,0,0,.576-7.146v-.2h-9.846V47.656h11.7v1.71a36.892,36.892,0,0,1-.576,7.362Zm140.688-.2V46.144h1.854V50.5h2.3v1.53h-2.3v4.284Zm-338.94,0V46.144h1.854V50.5h2.3v1.53h-2.3v4.284Zm22.23-1.6c3.726-1.134,6.03-3.24,6.354-5.814h-5.67V47.386h7.686c0,4.3-2.862,7.362-7.6,8.8ZM2526.3,56.134v-4.3h-1.71v3.78h-1.746V46.45h1.746v3.87h1.71V46.162h1.764v9.972ZM2055.386,54.64a5.657,5.657,0,0,0,4-5.22v-.558h-3.438V47.368h8.694v1.494h-3.384v.558a5.345,5.345,0,0,0,3.816,4.878l-.918,1.44a6.254,6.254,0,0,1-3.8-3.492,6.643,6.643,0,0,1-4.014,3.852Zm443.232-1.764c0-1.782,1.6-2.97,3.942-2.97s3.942,1.188,3.942,2.97c0,1.764-1.6,2.952-3.942,2.952S2498.618,54.64,2498.618,52.876Zm1.782,0c0,.954.864,1.53,2.16,1.53s2.178-.576,2.178-1.53c0-.972-.882-1.548-2.178-1.548S2500.4,51.9,2500.4,52.876Zm-340.722,0c0-1.782,1.6-2.97,3.942-2.97s3.942,1.188,3.942,2.97c0,1.764-1.6,2.952-3.942,2.952S2159.678,54.64,2159.678,52.876Zm1.782,0c0,.954.864,1.53,2.16,1.53s2.178-.576,2.178-1.53c0-.972-.882-1.548-2.178-1.548S2161.46,51.9,2161.46,52.876Zm148.77,2.808v-9.54h1.89v4.05h2.268v1.53h-2.268v3.96Zm-90.4-4.536a8.51,8.51,0,0,1-5.994,4.464l-.792-1.53c3.2-.594,5.814-3.1,5.814-5.67V47.188h1.962v1.224c0,2.592,2.61,5.094,5.814,5.67l-.81,1.53A8.511,8.511,0,0,1,2219.834,51.148Zm-114.768,4.374V54.046h3.492v-2.16a2.684,2.684,0,0,1-1.926-2.412c0-1.908,2.232-3.06,5.8-3.06,3.546,0,5.8,1.152,5.8,3.06a2.738,2.738,0,0,1-1.962,2.43v2.142h3.51v1.476Zm5.346-1.476h4V52.39a13.275,13.275,0,0,1-1.98.144,13.779,13.779,0,0,1-2.016-.144Zm-1.872-4.572c0,1.044,1.458,1.638,3.888,1.638,2.412,0,3.87-.594,3.87-1.638s-1.458-1.62-3.87-1.62C2110,47.854,2108.54,48.43,2108.54,49.474Zm405.684,4.59a5.438,5.438,0,0,0,3.276-4.878V47.134h1.8v2.052a4.729,4.729,0,0,0,3.168,4.41l-.99,1.386a5.623,5.623,0,0,1-3.06-2.934,6.1,6.1,0,0,1-3.222,3.438Zm-112.41,1.242V46.144h1.872v9.162Zm-108.144,0v-9.18h1.854v3.852h2.3v1.53h-2.3v3.8Zm254.592-4.122c0-2.3,1.872-3.906,4.41-3.906s4.428,1.6,4.428,3.906-1.89,3.906-4.428,3.906S2548.262,53.488,2548.262,51.184Zm1.818,0a2.618,2.618,0,1,0,2.592-2.322A2.357,2.357,0,0,0,2550.08,51.184Zm-125.838,0c0-2.3,1.872-3.906,4.41-3.906s4.428,1.6,4.428,3.906-1.89,3.906-4.428,3.906S2424.242,53.488,2424.242,51.184Zm1.818,0a2.618,2.618,0,1,0,2.592-2.322A2.357,2.357,0,0,0,2426.06,51.184ZM2300.024,54.6v-7.29h7.236v1.512h-5.382v4.266a30.907,30.907,0,0,0,6.84-.54l.2,1.512a35.691,35.691,0,0,1-7.578.54ZM2283.5,54.55V47.188h7.2v1.494h-5.346v4.356a31.777,31.777,0,0,0,6.786-.522l.18,1.494a33.911,33.911,0,0,1-7.506.54Zm-52.524-.108V46.864h11.088V48.34h-9.234v1.548h8.856V51.31h-8.856v1.638h9.4v1.494Zm160.29-.162v-7.2h1.854v5.652a35.519,35.519,0,0,0,7.146-.684l.216,1.494a37.056,37.056,0,0,1-7.866.738Zm139.626-.072V52.714H2545.6v1.494Zm-124.02,0V52.714h14.706v1.494ZM2381.1,49.96a8.174,8.174,0,0,1-5.994,3.672l-.72-1.494c3.312-.468,5.724-2.466,5.724-4.608v-.864h1.962v.864c0,2.106,2.448,4.14,5.724,4.608l-.72,1.494A8.224,8.224,0,0,1,2381.1,49.96ZM2532.764,51.6V46.576h10.926V48.07h-9.09V50.1h9.252V51.6Zm-124.02,0V46.576h10.926V48.07h-9.09V50.1h9.252V51.6Zm89.028-2.394V47.728h3.87V46.054h1.854v1.674h3.87V49.2Zm-338.94,0V47.728h3.87V46.054h1.854v1.674h3.87V49.2Zm222.174-36.769V-3.874h1.872V12.434Zm-119.97,0V-3.874h1.872V12.434Zm313.506-.018V-3.874h1.854V2.39h2.538V3.92H2576.4v8.5Zm-15.714-.018V-3.856h1.854V12.4Zm-42.12-3.168c0-1.98,2.088-3.15,5.472-3.15s5.49,1.17,5.49,3.15c0,2-2.106,3.168-5.49,3.168S2516.708,11.228,2516.708,9.23Zm1.818,0c0,1.116,1.35,1.71,3.654,1.71,2.322,0,3.654-.594,3.654-1.71,0-1.08-1.332-1.692-3.654-1.692C2519.876,7.538,2518.526,8.15,2518.526,9.23ZM2397.566,12.4V-3.874h1.872V12.4Zm-87.624,0V-3.856h1.872V2.822h2.394V4.388h-2.394V12.4Zm-33.12,0V-3.856h1.854V2.552h2.538v1.53h-2.538V12.4Zm-86.742,0V8.6h-8.838V7.106h10.692V12.4Zm-81.522,0V-3.856h1.782V12.4Zm-38.448,0V8.6h-8.838V7.106h10.692V12.4Zm344.628-.018V-3.856h1.764V12.38Zm-170.73,0V8.852h-9.414V7.376h4.788V5.738h-6.426V4.244h14.706V5.738h-6.426V7.376h4.626v5Zm-69.228,0V4.064h-1.926v7.524h-1.746V-3.532h1.746V2.552h1.926V-3.874h1.764V12.38Zm-33.1,0V-3.856h1.764V12.38ZM2462.312,10.9c3.132-.54,5.274-2.376,5.274-4.518v-.63h1.854v.63c0,2.124,2.124,3.96,5.256,4.482l-.738,1.458a7.591,7.591,0,0,1-5.436-3.4,7.683,7.683,0,0,1-5.49,3.438Zm16.416,1.35V8.168H2488V7h-9.306v-1.4h11.124V9.482h-9.252v1.35h9.72v1.422Zm-157.14,0V8.24h9.27V7.016h-9.306V5.63h11.124V9.554h-9.252v1.278h9.72v1.422Zm-173.7,0V8.186h9.27V6.98h-9.306v-1.4h4.662V4.208h-6.408V2.732h14.724V4.208h-6.444V5.576h4.59V9.5h-9.252v1.332h9.72v1.422ZM2533,12.2V6.3h1.836V7.79h6.714V6.3h1.836v5.9Zm1.836-1.476h6.714V9.23h-6.714ZM2339.282,12.2V5.63h1.836V7.466h6.894V5.63h1.836V12.2Zm1.836-1.494h6.894v-1.8h-6.894Zm158.67,1.386V8.042h1.854V10.58h9.216v1.512Zm-57.222,0V6.926h1.872V10.58h9.216v1.512Zm-86.688,0V7.016h1.854V10.58h9.09v1.512Zm-70.452,0V6.764h1.872V10.58h9.216v1.512Zm-65.97,0V6.908h1.854V10.58h8.982v1.512Zm-104.346,0V7.286h1.854V10.58h9.882v1.512Zm-36.36,0v-5h1.854V10.58h9.108v1.512Zm332.73-.468V3.83h-1.728c-.162,3.168-1.494,5.112-3.474,5.112-2.106,0-3.492-2.214-3.492-5.778s1.386-5.76,3.492-5.76c1.944,0,3.258,1.854,3.456,4.9h1.746V-3.55h1.728V11.624Zm-7-8.46c0,2.574.684,4.032,1.8,4.032s1.8-1.458,1.8-4.032-.684-4.014-1.8-4.014S2404.478.59,2404.478,3.164Zm-266.022,8.46v-5.2h-2.232c-.576,1.584-1.638,2.52-3.006,2.52-2.106,0-3.492-2.2-3.492-5.76,0-3.582,1.386-5.778,3.492-5.778a3.225,3.225,0,0,1,2.988,2.5h2.25V-3.55h1.728V11.624ZM2131.4,3.182c0,2.574.7,4.014,1.818,4.014s1.818-1.44,1.818-4.014-.7-4.032-1.818-4.032S2131.4.608,2131.4,3.182Zm5.31,0a10.384,10.384,0,0,1-.126,1.728h1.872V1.436h-1.872A10.607,10.607,0,0,1,2136.71,3.182Zm-31.428,8.424V6.134h-2.664V4.622h2.664V2.048h-2.376A11.439,11.439,0,0,1,2097.4,8.96l-1.062-1.314c3.348-2.034,4.968-4.68,5.238-8.01h-4.446V-1.858h6.282a14.655,14.655,0,0,1-.18,2.394h2.052v-4h1.728V11.606Zm475.47-1.8a1.389,1.389,0,1,1,2.772,0,1.387,1.387,0,1,1-2.772,0Zm-531.81-5.472c0-4.59,1.674-6.822,4.284-6.822,2.592,0,4.284,2.25,4.284,6.822,0,4.608-1.692,6.912-4.284,6.912C2050.616,11.246,2048.942,8.942,2048.942,4.334Zm1.98,0c0,3.834.954,5.274,2.3,5.274s2.3-1.44,2.3-5.274c0-3.8-.954-5.184-2.3-5.184S2050.922.536,2050.922,4.334Zm-22.5,0c0-4.59,1.674-6.822,4.284-6.822,2.592,0,4.284,2.25,4.284,6.822,0,4.608-1.692,6.912-4.284,6.912C2030.1,11.246,2028.422,8.942,2028.422,4.334Zm1.98,0c0,3.834.954,5.274,2.3,5.274s2.3-1.44,2.3-5.274c0-3.8-.954-5.184-2.3-5.184S2030.4.536,2030.4,4.334Zm8.226,6.678V9.806c3.906-3.456,5.922-6.03,5.922-8.208a2.16,2.16,0,0,0-2.25-2.43,3.593,3.593,0,0,0-2.61,1.476l-1.17-1.152a5.2,5.2,0,0,1,4.032-1.98,3.746,3.746,0,0,1,4,3.978c0,2.556-2.034,5.2-4.842,7.884.684-.072,1.512-.126,2.16-.126h3.312v1.764Zm-20.52,0V9.806c3.906-3.456,5.922-6.03,5.922-8.208a2.16,2.16,0,0,0-2.25-2.43,3.593,3.593,0,0,0-2.61,1.476L2018-.508a5.2,5.2,0,0,1,4.032-1.98,3.746,3.746,0,0,1,4,3.978c0,2.556-2.034,5.2-4.842,7.884.684-.072,1.512-.126,2.16-.126h3.312v1.764Zm405.126-.612V8.888h6.408V5.774c-2.97-.27-5.04-1.908-5.04-4.32,0-2.646,2.52-4.356,5.976-4.356,3.438,0,5.976,1.71,5.976,4.356,0,2.412-2.088,4.068-5.058,4.338v3.1h6.462V10.4Zm3.168-8.946c0,1.764,1.746,2.88,4.176,2.88,2.412,0,4.158-1.116,4.158-2.88s-1.746-2.88-4.158-2.88C2428.148-1.426,2426.4-.31,2426.4,1.454Zm-230.6,8.82V8.744h3.384V3.488h1.836V8.744h2.178V3.488h1.836V8.744h5.454v1.53Zm190.35-2.322c1.3,0,2.79,0,4.32-.054V6.314c-1.836-.288-3.042-1.4-3.042-2.97,0-1.818,1.62-3.024,3.978-3.024,2.34,0,3.96,1.206,3.96,3.024,0,1.584-1.206,2.682-3.042,2.97v1.53c1.458-.09,2.934-.18,4.32-.378l.126,1.35a63.255,63.255,0,0,1-10.386.666Zm3.042-4.608c0,1.008.9,1.62,2.214,1.62,1.3,0,2.2-.612,2.2-1.62,0-.99-.9-1.6-2.2-1.6C2390.1,1.742,2389.2,2.354,2389.2,3.344ZM2265.788,7.826a8.072,8.072,0,0,0,4.14-6.966V-.706h-3.546v-1.53h8.838v1.53h-3.438V.86a7.615,7.615,0,0,0,4.068,6.57l-1.026,1.458a8.211,8.211,0,0,1-3.942-4.716,8.47,8.47,0,0,1-4.032,5.13Zm103.572-.252c2.592-1.17,4.284-4.284,4.284-7.416V-2.506h1.854V.158a7.873,7.873,0,0,0,4.212,7.128l-1.08,1.476a8.114,8.114,0,0,1-4.032-4.878,8.448,8.448,0,0,1-4.14,5.238Zm-70.308-.126c.99,0,2.088-.018,3.222-.036v-4.9h1.818V7.358c1.692-.072,3.4-.162,4.986-.378l.09,1.368a62.715,62.715,0,0,1-9.918.63Zm209.394,1.4V-3.874h1.854V1.652h2.232v1.53H2510.3v5.67Zm-345.222-.324V-1.93h6.012V-.418h-4.194V7a24.947,24.947,0,0,0,5.022-.45l.162,1.53a29.321,29.321,0,0,1-5.922.45Zm-38.61-.036V6.98h-3.186v-1.3h3.186V-3.874h1.854V8.492Zm125.928-.036V-2.362h7.74v1.53h-5.9v7.74a37.294,37.294,0,0,0,7.146-.522l.2,1.548a40.949,40.949,0,0,1-7.83.522Zm313.92-.036V-2.326h7.56V-.814h-5.706V6.872a39.244,39.244,0,0,0,6.876-.522l.2,1.53a40.118,40.118,0,0,1-7.6.54Zm-16.254-.126V-2.272h1.836V6.71a37.648,37.648,0,0,0,7.29-.738l.2,1.548a38.827,38.827,0,0,1-7.938.774ZM2087.444,8.15V2.678h-4.32V1.2h4.32V-.4h-4.32V-1.876h4.32v-1.98h1.854V8.15Zm140.58-.036V2.552h-3.2V1.022h3.2V-3.856h1.854V8.114Zm223.308-.072V-3.838h1.854V8.042Zm-86.778,0V2.03H2361.6V.5h2.952V-3.838h1.854V8.042Zm-247.1-.072V4.946c-1.548.072-3.024.09-4.3.09l-.234-1.512a92.4,92.4,0,0,0,10.422-.486l.144,1.332a36.136,36.136,0,0,1-4.176.468V7.97Zm176.742-.018V-3.856h1.854V7.952Zm203.238-2.3c1.206,0,2.646-.018,4.14-.054V4.478c-1.818-.216-2.952-1.1-2.952-2.43,0-1.548,1.53-2.5,3.87-2.5s3.87.954,3.87,2.5c0,1.314-1.116,2.214-2.916,2.43V5.5c1.4-.09,2.826-.2,4.14-.4l.144,1.278a58.19,58.19,0,0,1-10.08.738Zm2.934-3.6c0,.756.828,1.206,2.124,1.206s2.124-.45,2.124-1.206c0-.774-.828-1.242-2.124-1.242S2500.364,1.274,2500.364,2.048Zm-28.35,5V2.12h-3.2V.59h3.2V-3.856h1.854V7.052Zm-265.482-.54a34.319,34.319,0,0,0,.576-7.146v-.2h-9.846V-2.344h11.7v1.71a36.877,36.877,0,0,1-.576,7.362Zm10.08-1.62c3.582-1.17,5.958-3.33,6.3-5.994h-5.454V-2.614h7.452c0,4.284-2.862,7.47-7.488,8.982ZM2190.08,6.314V-3.856h1.854V.5h2.3V2.03h-2.3V6.314Zm-119.97,0V-3.856h1.854V.5h2.3V2.03h-2.3V6.314ZM2460.638,4.73c3.744-1.17,5.814-3.222,6.12-5.832h-5.328V-2.6h7.308c0,4.3-2.574,7.254-7.326,8.766Zm-107.712-.09a5.657,5.657,0,0,0,4-5.22v-.558h-3.438V-2.632h8.694v1.494h-3.384V-.58A5.345,5.345,0,0,0,2362.61,4.3l-.918,1.44a6.254,6.254,0,0,1-3.8-3.492A6.643,6.643,0,0,1,2353.88,6.1ZM2076.752,5.864v-8.6h1.854V4.334a36.836,36.836,0,0,0,6.318-.54l.18,1.512a38.4,38.4,0,0,1-7.092.558Zm103.356-2.988c0-1.782,1.6-2.97,3.942-2.97s3.942,1.188,3.942,2.97c0,1.764-1.6,2.952-3.942,2.952S2180.108,4.64,2180.108,2.876Zm1.782,0c0,.954.864,1.53,2.16,1.53s2.178-.576,2.178-1.53c0-.972-.882-1.548-2.178-1.548S2181.89,1.9,2181.89,2.876Zm-121.752,0c0-1.782,1.6-2.97,3.942-2.97s3.942,1.188,3.942,2.97c0,1.764-1.6,2.952-3.942,2.952S2060.138,4.64,2060.138,2.876Zm1.782,0c0,.954.864,1.53,2.16,1.53s2.178-.576,2.178-1.53c0-.972-.882-1.548-2.178-1.548S2061.92,1.9,2061.92,2.876ZM2439.848,4.3a5.975,5.975,0,0,0,3.978-5.634v-1.62h1.89v1.62a5.642,5.642,0,0,0,3.924,5.346l-.954,1.476a6.6,6.6,0,0,1-3.888-3.708,6.968,6.968,0,0,1-4,4.014Zm85.9,1.422V3.578h-3.924a4.3,4.3,0,0,1-3.222,1.314A3.958,3.958,0,0,1,2514.35.986a3.961,3.961,0,0,1,4.248-3.924,4.343,4.343,0,0,1,3.222,1.314h3.924v-2.25h1.854V5.72Zm-9.63-4.734a2.469,2.469,0,0,0,4.932,0,2.469,2.469,0,0,0-4.932,0Zm6.7,0a3.6,3.6,0,0,1-.162,1.1h3.1v-2.2h-3.078A4.258,4.258,0,0,1,2522.81.986Zm18.72,4.644V-3.856h1.854V.194h2.3v1.53h-2.3V5.63Zm-9.972-2.988c0-1.71,1.6-2.862,3.942-2.862,2.358,0,3.942,1.152,3.942,2.862,0,1.728-1.584,2.88-3.942,2.88C2533.16,5.522,2531.558,4.37,2531.558,2.642Zm1.782,0c0,.936.864,1.494,2.16,1.494s2.178-.558,2.178-1.494c0-.918-.882-1.476-2.178-1.476S2533.34,1.724,2533.34,2.642Zm-250.38-1.35a4.082,4.082,0,0,1,4.32-4.068,4.075,4.075,0,1,1-4.32,4.068Zm1.818,0a2.5,2.5,0,0,0,5,0,2.5,2.5,0,0,0-5,0Zm21.132,3.834a33.877,33.877,0,0,0,.45-5.778h-6.444V-2.146h8.262v1.08a37.98,37.98,0,0,1-.45,6.354Zm42.084-.27V1.4h-3.006a3.927,3.927,0,0,1-4.14,3.078c-2.448,0-4.248-1.566-4.248-3.816,0-2.232,1.8-3.8,4.248-3.8a3.943,3.943,0,0,1,4.14,3.024h3.006V-3.856h1.854V4.856ZM2338.382.662a2.463,2.463,0,0,0,4.914,0,2.465,2.465,0,0,0-4.914,0ZM2319.806,4.55V3.074h6.426V1.328h1.854V3.074h6.444V4.55Zm157.14-.126V2.948h14.724V4.424ZM2240.3.86c-1.008,1.458-3.186,2.394-6.012,2.628l-.558-1.4c3.294-.252,5.346-1.458,5.526-2.934h-4.842V-2.308h4.968v-1.6h1.854v1.6h4.95V-.85h-4.824c.18,1.476,2.214,2.682,5.526,2.934l-.576,1.4C2243.486,3.254,2241.308,2.318,2240.3.86ZM2114.156-.382c0-1.728,1.638-2.862,4.032-2.862,2.376,0,4.014,1.134,4.014,2.862s-1.638,2.862-4.014,2.862C2115.794,2.48,2114.156,1.346,2114.156-.382Zm1.764,0c0,.918.918,1.494,2.268,1.494,1.332,0,2.25-.576,2.25-1.494s-.918-1.494-2.25-1.494C2116.838-1.876,2115.92-1.3,2115.92-.382Zm211.248-.4c-.864,1.6-3.15,2.7-6.03,2.952l-.612-1.386c2.934-.252,5.04-1.35,5.346-2.7h-4.7V-3.37H2333.2v1.458h-4.752c.324,1.35,2.43,2.448,5.364,2.7l-.594,1.386C2330.318,1.922,2328.032.842,2327.168-.778ZM2478.512-.8c0-1.818,2.142-2.808,5.8-2.808,3.636,0,5.8.99,5.8,2.808,0,1.8-2.16,2.79-5.8,2.79C2480.654,1.994,2478.512,1,2478.512-.8Zm1.926,0c0,.918,1.35,1.4,3.87,1.4s3.87-.486,3.87-1.4c0-.936-1.35-1.422-3.87-1.422S2480.438-1.732,2480.438-.8Zm-326.97-.414c-1.044,1.62-3.258,2.736-5.958,3.06l-.63-1.422c3.258-.324,5.634-1.926,5.634-3.744v-.468h1.908v.468c0,1.818,2.376,3.42,5.634,3.744l-.63,1.422C2156.726,1.526,2154.512.41,2153.468-1.21Zm233.01.738V-1.966h4V-3.838h1.854v1.872h3.978V-.472ZM2179.262-.8V-2.272h3.87V-3.946h1.854v1.674h3.87V-.8Zm-119.97,0V-2.272h3.87V-3.946h1.854v1.674h3.87V-.8Zm471.42-.018V-2.308h3.87V-4h1.854v1.692h3.87V-.814Zm-32.868-.216V-2.4h3.726v-1.53h1.872V-2.4h3.69V-1.03Z" transform="translate(-2017.303 4.5)" stroke="rgba(0,0,0,0)" stroke-miterlimit="10" stroke-width="1"/>
</svg>
