<svg id="구성_요소_17_1" data-name="구성 요소 17 – 1" xmlns="http://www.w3.org/2000/svg" width="817" height="121" viewBox="0 0 817 121">
  <g id="그룹_3" data-name="그룹 3" transform="translate(15.072 -237.613)">
    <g id="그룹_2" data-name="그룹 2" transform="translate(267.928 237.613)">
      <path id="패스_29" data-name="패스 29" d="M331.539,237.613v7.66H311.5v-7.66H267.93l0,43.4h24.315V257.661H494.112v23.352h24.816v-43.4Z" transform="translate(-267.928 -237.613)"/>
    </g>
  </g>
  <g id="그룹_4" data-name="그룹 4" transform="translate(652 680)">
    <g id="그룹_1" data-name="그룹 1" transform="translate(-652 -579.447)">
      <path id="패스_1" data-name="패스 1" d="M255.489,254.109h3.663v6.9l6.512-6.9h4.565l-6.5,6.578,7.136,10.073h-4.6l-5.006-7.484-2.1,2.123v5.361h-3.663Z" transform="translate(-255.489 -253.713)" fill="#1a1311"/>
      <path id="패스_2" data-name="패스 2" d="M272.716,254.109h3.754l6.232,16.652H278.9l-1.253-3.7h-6.232l-1.308,3.7h-3.712Zm-.351,10.213h4.32l-2.1-6.106h-.056Z" transform="translate(-249.456 -253.713)" fill="#1a1311"/>
      <path id="패스_3" data-name="패스 3" d="M282.875,264.28l-6.136-10.171h4.13l3.9,6.578,3.871-6.578h4.081l-6.181,10.263v6.389h-3.663Z" transform="translate(-243.73 -253.713)" fill="#1a1311"/>
      <path id="패스_4" data-name="패스 4" d="M305.546,270.761h-3.635l-2.829-11.332h-.044l-2.779,11.332h-3.708l-4.415-16.652H291.8l2.639,11.338h.044l2.9-11.338h3.432l2.844,11.479h.048l2.725-11.479h3.593Z" transform="translate(-237.423 -253.713)" fill="#1a1311"/>
      <path id="패스_5" data-name="패스 5" d="M304.177,259.2a8.528,8.528,0,0,1,1.628-2.816,7.235,7.235,0,0,1,2.592-1.862,9.111,9.111,0,0,1,6.833,0,7.422,7.422,0,0,1,2.6,1.862,8.172,8.172,0,0,1,1.62,2.816,10.4,10.4,0,0,1,.552,3.455,10.01,10.01,0,0,1-.552,3.369,8.023,8.023,0,0,1-1.62,2.763,7.518,7.518,0,0,1-2.6,1.861,9.211,9.211,0,0,1-6.833,0,7.252,7.252,0,0,1-2.592-1.853,8.2,8.2,0,0,1-1.628-2.759,10.2,10.2,0,0,1-.555-3.382A10.492,10.492,0,0,1,304.177,259.2Zm3.365,5.538a5.416,5.416,0,0,0,.8,1.783,3.883,3.883,0,0,0,1.411,1.252,4.788,4.788,0,0,0,4.115-.012,3.854,3.854,0,0,0,1.417-1.249,5.545,5.545,0,0,0,.791-1.774,8.3,8.3,0,0,0,.26-2.083,8.923,8.923,0,0,0-.26-2.172,5.852,5.852,0,0,0-.791-1.827,4.03,4.03,0,0,0-1.417-1.255,4.821,4.821,0,0,0-4.129,0,3.972,3.972,0,0,0-1.407,1.255,5.757,5.757,0,0,0-.794,1.827,8.924,8.924,0,0,0-.256,2.172A8.3,8.3,0,0,0,307.541,264.735Z" transform="translate(-228.855 -253.854)" fill="#1a1311"/>
      <path id="패스_6" data-name="패스 6" d="M316.5,254.109h3.638l6.954,11.176h.048V254.109h3.431v16.652H326.9l-6.925-11.148h-.048v11.148H316.5Z" transform="translate(-221.73 -253.713)" fill="#1a1311"/>
      <path id="패스_7" data-name="패스 7" d="M349.269,264.473a6.426,6.426,0,0,1-1.858,5,9.057,9.057,0,0,1-10.513.011,6.466,6.466,0,0,1-1.839-5.013V254.109h3.667v10.364a7.285,7.285,0,0,0,.124,1.4,2.908,2.908,0,0,0,.5,1.135,2.588,2.588,0,0,0,1.063.787,4.491,4.491,0,0,0,1.737.3,3.53,3.53,0,0,0,2.684-.848,4.12,4.12,0,0,0,.764-2.767V254.109h3.667Z" transform="translate(-211.459 -253.713)" fill="#1a1311"/>
      <path id="패스_8" data-name="패스 8" d="M347.435,254.109h3.638l6.954,11.176h.045V254.109h3.43v16.652h-3.663l-6.928-11.148h-.04v11.148h-3.436Z" transform="translate(-204.611 -253.713)" fill="#1a1311"/>
      <path id="패스_9" data-name="패스 9" d="M359.769,254.109h3.661v16.652h-3.661Z" transform="translate(-197.786 -253.713)" fill="#1a1311"/>
      <path id="패스_10" data-name="패스 10" d="M373.786,270.761h-4.135l-5.407-16.652h3.779l3.709,11.717h.045l3.75-11.717h3.785Z" transform="translate(-195.31 -253.713)" fill="#1a1311"/>
      <path id="패스_11" data-name="패스 11" d="M376.061,254.109H388.52v3.077h-8.8v3.573H387.8v2.849h-8.076v4.081h8.985v3.073H376.061Z" transform="translate(-188.771 -253.713)" fill="#1a1311"/>
      <path id="패스_12" data-name="패스 12" d="M387,254.109h8.975a5.564,5.564,0,0,1,2.012.349,4.4,4.4,0,0,1,2.53,2.46,4.67,4.67,0,0,1,.34,1.785,4.836,4.836,0,0,1-.646,2.571,3.875,3.875,0,0,1-1.993,1.609v.048a2.709,2.709,0,0,1,1.79,1.359,6.184,6.184,0,0,1,.634,2.537c0,.062.016.247.03.553a20.369,20.369,0,0,0,.2,2.032,3.117,3.117,0,0,0,.48,1.348h-3.671a3.738,3.738,0,0,1-.286-1.061c-.059-.413-.106-.926-.154-1.574-.047-.584-.09-1.038-.137-1.348a3.216,3.216,0,0,0-.809-1.936,2.787,2.787,0,0,0-1.968-.586h-3.667v6.5H387Zm3.658,7.538h4.014a2.712,2.712,0,0,0,1.89-.575,2.335,2.335,0,0,0,.631-1.807,2.235,2.235,0,0,0-.631-1.752,2.757,2.757,0,0,0-1.89-.562h-4.014Z" transform="translate(-182.719 -253.713)" fill="#1a1311"/>
      <path id="패스_13" data-name="패스 13" d="M401.915,265.374a2.7,2.7,0,0,0,1.033,2.33,4.411,4.411,0,0,0,2.652.758,6.761,6.761,0,0,0,1.081-.1,4.015,4.015,0,0,0,1.055-.326,2.018,2.018,0,0,0,.806-.643,1.674,1.674,0,0,0,.3-1.018,1.476,1.476,0,0,0-.3-.935,2.378,2.378,0,0,0-.815-.656,7.6,7.6,0,0,0-1.12-.46c-.408-.123-.951-.261-1.637-.418-.447-.121-.8-.216-1.07-.273-.73-.21-1.381-.421-1.942-.632a6.433,6.433,0,0,1-1.525-.856,3.835,3.835,0,0,1-1.1-1.327,4.241,4.241,0,0,1-.4-1.931,4.375,4.375,0,0,1,.525-2.184,4.452,4.452,0,0,1,1.426-1.591,6.292,6.292,0,0,1,1.995-.941,8.156,8.156,0,0,1,2.282-.32,10.093,10.093,0,0,1,2.55.3,6.058,6.058,0,0,1,2.128.957,4.67,4.67,0,0,1,1.455,1.678,5.149,5.149,0,0,1,.541,2.431h-3.549a2.289,2.289,0,0,0-.944-1.959,4.223,4.223,0,0,0-2.344-.559,3.265,3.265,0,0,0-1.772.463,1.558,1.558,0,0,0-.752,1.423,1.381,1.381,0,0,0,.194.781,1.566,1.566,0,0,0,.648.514,8.854,8.854,0,0,0,1.236.446c.517.161,1.352.38,2.523.688a2.15,2.15,0,0,1,.371.092.4.4,0,0,0,.14.017,14.573,14.573,0,0,1,1.542.469,7.3,7.3,0,0,1,1.468.784,4.065,4.065,0,0,1,1.278,1.423,4.273,4.273,0,0,1,.52,2.161,4.741,4.741,0,0,1-1.824,3.859,7.883,7.883,0,0,1-5.1,1.477,10.242,10.242,0,0,1-2.7-.346,6.9,6.9,0,0,1-2.268-1.076A5.3,5.3,0,0,1,398.939,268a5.744,5.744,0,0,1-.572-2.63Z" transform="translate(-176.428 -253.854)" fill="#1a1311"/>
      <path id="패스_14" data-name="패스 14" d="M409.99,254.109h3.663v16.652H409.99Z" transform="translate(-169.996 -253.713)" fill="#1a1311"/>
      <path id="패스_15" data-name="패스 15" d="M419.778,257.186h-5v-3.077H428.43v3.077h-4.988v13.575h-3.664Z" transform="translate(-167.345 -253.713)" fill="#1a1311"/>
      <path id="패스_16" data-name="패스 16" d="M430.966,264.28l-6.14-10.171h4.135l3.893,6.578,3.877-6.578h4.078l-6.173,10.263v6.389h-3.669Z" transform="translate(-161.787 -253.713)" fill="#1a1311"/>
      <path id="패스_17" data-name="패스 17" d="M442.691,259.2a8.181,8.181,0,0,1,1.623-2.816,7.3,7.3,0,0,1,2.588-1.862,9.123,9.123,0,0,1,6.838,0,7.377,7.377,0,0,1,2.6,1.862,8.083,8.083,0,0,1,1.623,2.816,10.693,10.693,0,0,1,.55,3.455,10.291,10.291,0,0,1-.55,3.369,7.935,7.935,0,0,1-1.623,2.763,7.471,7.471,0,0,1-2.6,1.861,9.223,9.223,0,0,1-6.838,0,7.319,7.319,0,0,1-2.588-1.853,7.872,7.872,0,0,1-1.623-2.759,10.119,10.119,0,0,1-.558-3.382A10.4,10.4,0,0,1,442.691,259.2Zm3.361,5.538a5.416,5.416,0,0,0,.8,1.783,3.843,3.843,0,0,0,1.414,1.252,4.785,4.785,0,0,0,4.113-.012,3.861,3.861,0,0,0,1.415-1.249,5.7,5.7,0,0,0,.794-1.774,8.3,8.3,0,0,0,.252-2.083,8.926,8.926,0,0,0-.252-2.172,6.012,6.012,0,0,0-.794-1.827,4.038,4.038,0,0,0-1.415-1.255,4.821,4.821,0,0,0-4.129,0,3.992,3.992,0,0,0-1.413,1.255,5.816,5.816,0,0,0-.789,1.827,8.851,8.851,0,0,0-.261,2.172A8.233,8.233,0,0,0,446.052,264.735Z" transform="translate(-152.21 -253.854)" fill="#1a1311"/>
      <path id="패스_18" data-name="패스 18" d="M455.484,254.109H467.2v3.077H459.15v3.855h6.968v2.841H459.15v6.878h-3.666Z" transform="translate(-144.822 -253.713)" fill="#1a1311"/>
      <path id="패스_19" data-name="패스 19" d="M476.151,254.109h3.75l6.235,16.652h-3.8l-1.263-3.7h-6.224l-1.311,3.7h-3.708Zm-.354,10.213h4.317l-2.1-6.106h-.053Z" transform="translate(-136.886 -253.713)" fill="#1a1311"/>
      <path id="패스_20" data-name="패스 20" d="M482.461,254.109h8.974a5.489,5.489,0,0,1,2,.349,4.453,4.453,0,0,1,1.563.993,4.384,4.384,0,0,1,.971,1.468,4.585,4.585,0,0,1,.346,1.785,4.866,4.866,0,0,1-.646,2.571,3.877,3.877,0,0,1-2,1.609v.048a2.691,2.691,0,0,1,1.79,1.359,6.158,6.158,0,0,1,.634,2.537c0,.062.012.247.025.553.048.792.115,1.473.2,2.032a3.263,3.263,0,0,0,.478,1.348h-3.658a3.688,3.688,0,0,1-.295-1.061c-.058-.413-.106-.926-.154-1.574-.047-.584-.095-1.038-.137-1.348a3.225,3.225,0,0,0-.8-1.936,2.8,2.8,0,0,0-1.974-.586h-3.666v6.5h-3.652Zm3.652,7.538h4.017a2.686,2.686,0,0,0,1.884-.575,2.307,2.307,0,0,0,.634-1.807,2.209,2.209,0,0,0-.634-1.752,2.731,2.731,0,0,0-1.884-.562h-4.017Z" transform="translate(-129.895 -253.713)" fill="#1a1311"/>
      <path id="패스_21" data-name="패스 21" d="M498.382,257.186h-4.988v-3.077h13.648v3.077h-4.991v13.575h-3.669Z" transform="translate(-123.845 -253.713)" fill="#1a1311"/>
      <path id="패스_22" data-name="패스 22" d="M519.508,269.18a6.864,6.864,0,0,1-2.149,1.493,6.81,6.81,0,0,1-4.648.148,5.019,5.019,0,0,1-1.718-.971,4.643,4.643,0,0,1-1.564-3.68,4.236,4.236,0,0,1,1.045-2.844,8.14,8.14,0,0,1,2.689-1.991,9.764,9.764,0,0,1-1.193-1.769,3.952,3.952,0,0,1-.395-1.779,3.477,3.477,0,0,1,.349-1.538,3.712,3.712,0,0,1,.971-1.207,4.175,4.175,0,0,1,1.4-.775,4.792,4.792,0,0,1,1.626-.28,5.039,5.039,0,0,1,3.274,1.041,3.577,3.577,0,0,1,1.293,2.953,3.825,3.825,0,0,1-.789,2.4,6.671,6.671,0,0,1-2.172,1.752l2.141,2.638a5.825,5.825,0,0,0,.61-1.985h2.874a8.862,8.862,0,0,1-.525,2.21,7.912,7.912,0,0,1-1.086,1.9l3.379,3.933h-4.053Zm-4.6-5.7a5.236,5.236,0,0,0-1.668,1.139,2.273,2.273,0,0,0-.662,1.619,2.022,2.022,0,0,0,.71,1.553,2.428,2.428,0,0,0,1.668.637,3.09,3.09,0,0,0,1.508-.368,5.077,5.077,0,0,0,1.292-1.1Zm2.229-6.805a1.4,1.4,0,0,0-1.061-.472,1.442,1.442,0,0,0-1.05.429,1.367,1.367,0,0,0-.446,1.047,2.233,2.233,0,0,0,.274,1.1,7.2,7.2,0,0,0,.822,1.139,2.894,2.894,0,0,1,.213.255,5.685,5.685,0,0,0,1.283-1.059,1.992,1.992,0,0,0,.419-1.327A1.515,1.515,0,0,0,517.141,256.676Z" transform="translate(-114.972 -253.78)" fill="#1a1311"/>
      <path id="패스_23" data-name="패스 23" d="M526.852,254.109h7.186a7.36,7.36,0,0,1,5.471,2.111,8.373,8.373,0,0,1,2.088,6.125,11.508,11.508,0,0,1-.465,3.374,7.6,7.6,0,0,1-1.423,2.667,6.224,6.224,0,0,1-2.381,1.759,8.019,8.019,0,0,1-3.29.617h-7.186Zm3.667,13.579h3.26a4.628,4.628,0,0,0,1.578-.269,3.626,3.626,0,0,0,1.317-.861,4.13,4.13,0,0,0,.919-1.564,6.983,6.983,0,0,0,.342-2.305,6.563,6.563,0,0,0-1.1-4.091,4.425,4.425,0,0,0-3.709-1.412h-2.607Z" transform="translate(-105.331 -253.713)" fill="#1a1311"/>
      <path id="패스_24" data-name="패스 24" d="M539.186,254.109h12.456v3.077h-8.789v3.573h8.066v2.849h-8.066v4.081h8.977v3.073H539.186Z" transform="translate(-98.506 -253.713)" fill="#1a1311"/>
      <path id="패스_25" data-name="패스 25" d="M552.992,265.374a2.685,2.685,0,0,0,1.034,2.33,4.37,4.37,0,0,0,2.649.758,6.713,6.713,0,0,0,1.08-.1,3.967,3.967,0,0,0,1.053-.326,1.956,1.956,0,0,0,.8-.643,1.667,1.667,0,0,0,.309-1.018,1.471,1.471,0,0,0-.309-.935,2.284,2.284,0,0,0-.812-.656,7.517,7.517,0,0,0-1.12-.46c-.4-.123-.952-.261-1.636-.418-.449-.121-.806-.216-1.077-.273q-1.092-.315-1.932-.632a6.273,6.273,0,0,1-1.524-.856,3.8,3.8,0,0,1-1.1-1.327,4.263,4.263,0,0,1-.4-1.931,4.423,4.423,0,0,1,.519-2.184,4.547,4.547,0,0,1,1.423-1.591,6.379,6.379,0,0,1,2.005-.941,8.153,8.153,0,0,1,2.277-.32,10.226,10.226,0,0,1,2.555.3,6.047,6.047,0,0,1,2.123.957,4.625,4.625,0,0,1,1.454,1.678,5.152,5.152,0,0,1,.539,2.431h-3.543a2.275,2.275,0,0,0-.949-1.959,4.2,4.2,0,0,0-2.339-.559,3.265,3.265,0,0,0-1.775.463,1.555,1.555,0,0,0-.749,1.423,1.369,1.369,0,0,0,.194.781,1.529,1.529,0,0,0,.646.514,9.124,9.124,0,0,0,1.235.446c.516.161,1.35.38,2.521.688a2.023,2.023,0,0,1,.373.092.377.377,0,0,0,.137.017,13.289,13.289,0,0,1,1.535.469,7.249,7.249,0,0,1,1.48.784,4.167,4.167,0,0,1,1.281,1.423,4.291,4.291,0,0,1,.519,2.161,4.743,4.743,0,0,1-1.827,3.859,7.874,7.874,0,0,1-5.106,1.477,10.265,10.265,0,0,1-2.695-.346,6.906,6.906,0,0,1-2.266-1.076A5.412,5.412,0,0,1,550.013,268a5.725,5.725,0,0,1-.572-2.63Z" transform="translate(-92.831 -253.854)" fill="#1a1311"/>
      <path id="패스_26" data-name="패스 26" d="M561.07,254.109h3.657v16.652H561.07Z" transform="translate(-86.397 -253.713)" fill="#1a1311"/>
      <path id="패스_27" data-name="패스 27" d="M579,269.019a5.69,5.69,0,0,1-2.1,1.743,5.934,5.934,0,0,1-2.47.541,8.619,8.619,0,0,1-3.419-.657,7.29,7.29,0,0,1-2.591-1.853,8.1,8.1,0,0,1-1.62-2.759,9.97,9.97,0,0,1-.562-3.382,10.251,10.251,0,0,1,.563-3.455,8.427,8.427,0,0,1,1.62-2.816,7.273,7.273,0,0,1,2.591-1.862,8.538,8.538,0,0,1,3.419-.665,7.971,7.971,0,0,1,2.493.4,7.343,7.343,0,0,1,2.184,1.143,5.954,5.954,0,0,1,1.581,1.852,6.287,6.287,0,0,1,.761,2.485h-3.5a3.436,3.436,0,0,0-1.249-2.075,3.658,3.658,0,0,0-2.27-.721,4.331,4.331,0,0,0-2.069.464,3.979,3.979,0,0,0-1.41,1.255,5.82,5.82,0,0,0-.79,1.827,8.8,8.8,0,0,0-.258,2.172,8.183,8.183,0,0,0,.258,2.083,5.364,5.364,0,0,0,.806,1.783,3.829,3.829,0,0,0,1.409,1.252,4.377,4.377,0,0,0,2.053.458,3.978,3.978,0,0,0,2.788-.926,3.921,3.921,0,0,0,1.174-2.669h-3.682V261.9h7v9h-2.333Z" transform="translate(-83.539 -253.854)" fill="#1a1311"/>
      <path id="패스_28" data-name="패스 28" d="M579.3,254.109h3.641l6.956,11.176h.048V254.109h3.428v16.652h-3.664l-6.933-11.148h-.039v11.148H579.3Z" transform="translate(-76.311 -253.713)" fill="#1a1311"/>
    </g>
    <text id="ARCHITECTURE_DESIGN" data-name="ARCHITECTURE DESIGN" transform="translate(-121 -564)" font-size="22" font-family="Helvetica-Bold, Helvetica" font-weight="700" letter-spacing="0.055em"><tspan x="0" y="0">ARCHITECTURE DESIGN</tspan></text>
  </g>
</svg>
